<?xml version="1.0" encoding="utf-8"?>
<!-- Generator: Adobe Illustrator 21.1.0, SVG Export Plug-In . SVG Version: 6.00 Build 0)  -->
<svg version="1.1" id="Layer_1" xmlns="http://www.w3.org/2000/svg" xmlns:xlink="http://www.w3.org/1999/xlink" x="0px" y="0px"
	 viewBox="0 0 350 77.7" style="enable-background:new 0 0 350 77.7;" xml:space="preserve">
<style type="text/css">
	.st0{filter:url(#Adobe_OpacityMaskFilter);}
	.st1{fill:url(#XMLID_3_);}
	.st2{mask:url(#XMLID_2_);}
	.st3{clip-path:url(#XMLID_4_);fill:#211F1F;}
	.st4{filter:url(#Adobe_OpacityMaskFilter_1_);}
	.st5{fill:url(#XMLID_6_);}
	.st6{mask:url(#XMLID_5_);}
	.st7{clip-path:url(#XMLID_7_);}
	.st8{clip-path:url(#XMLID_8_);fill:url(#XMLID_9_);}
	.st9{fill:none;}
	.st10{clip-path:url(#XMLID_10_);fill:url(#XMLID_11_);}
	.st11{opacity:0.7;clip-path:url(#XMLID_12_);}
	.st12{filter:url(#Adobe_OpacityMaskFilter_2_);}
	.st13{clip-path:url(#XMLID_13_);fill:url(#XMLID_15_);}
	.st14{clip-path:url(#XMLID_13_);mask:url(#XMLID_14_);}
	.st15{clip-path:url(#XMLID_16_);fill:#59A044;}
	.st16{clip-path:url(#XMLID_17_);fill:#519342;}
	.st17{filter:url(#Adobe_OpacityMaskFilter_3_);}
	.st18{clip-path:url(#XMLID_17_);fill:url(#XMLID_19_);}
	.st19{clip-path:url(#XMLID_17_);mask:url(#XMLID_18_);}
	.st20{clip-path:url(#XMLID_20_);fill:#211F1F;}
	.st21{filter:url(#Adobe_OpacityMaskFilter_4_);}
	.st22{clip-path:url(#XMLID_17_);fill:url(#XMLID_22_);}
	.st23{clip-path:url(#XMLID_17_);mask:url(#XMLID_21_);}
	.st24{clip-path:url(#XMLID_23_);fill:#211F1F;}
	.st25{opacity:0.7;clip-path:url(#XMLID_17_);}
	.st26{filter:url(#Adobe_OpacityMaskFilter_5_);}
	.st27{clip-path:url(#XMLID_24_);fill:url(#XMLID_26_);}
	.st28{clip-path:url(#XMLID_24_);mask:url(#XMLID_25_);}
	.st29{clip-path:url(#XMLID_27_);}
	.st30{clip-path:url(#XMLID_28_);fill:url(#XMLID_29_);}
	.st31{opacity:0.75;clip-path:url(#XMLID_17_);}
	.st32{filter:url(#Adobe_OpacityMaskFilter_6_);}
	.st33{clip-path:url(#XMLID_30_);fill:url(#XMLID_32_);}
	.st34{clip-path:url(#XMLID_30_);mask:url(#XMLID_31_);}
	.st35{clip-path:url(#XMLID_33_);fill:#387338;}
	.st36{filter:url(#Adobe_OpacityMaskFilter_7_);}
	.st37{clip-path:url(#XMLID_17_);fill:url(#XMLID_35_);}
	.st38{clip-path:url(#XMLID_17_);mask:url(#XMLID_34_);}
	.st39{clip-path:url(#XMLID_36_);}
	.st40{clip-path:url(#XMLID_37_);fill:url(#XMLID_38_);}
	.st41{filter:url(#Adobe_OpacityMaskFilter_8_);}
	.st42{clip-path:url(#XMLID_17_);fill:url(#XMLID_40_);}
	.st43{clip-path:url(#XMLID_17_);mask:url(#XMLID_39_);}
	.st44{clip-path:url(#XMLID_41_);fill:#387338;}
	.st45{opacity:0.66;clip-path:url(#XMLID_17_);}
	.st46{filter:url(#Adobe_OpacityMaskFilter_9_);}
	.st47{clip-path:url(#XMLID_42_);fill:url(#XMLID_44_);}
	.st48{clip-path:url(#XMLID_42_);mask:url(#XMLID_43_);}
	.st49{clip-path:url(#XMLID_45_);fill:#387338;}
</style>
<g id="XMLID_390_">
	<defs>
		<filter id="Adobe_OpacityMaskFilter" filterUnits="userSpaceOnUse" x="49.5" y="29.9" width="31.4" height="14">
			<feFlood  style="flood-color:white;flood-opacity:1" result="back"/>
			<feBlend  in="SourceGraphic" in2="back" mode="normal"/>
		</filter>
	</defs>
	<mask maskUnits="userSpaceOnUse" x="49.5" y="29.9" width="31.4" height="14" id="XMLID_2_">
		<g id="XMLID_145_" class="st0">
			
				<linearGradient id="XMLID_3_" gradientUnits="userSpaceOnUse" x1="-159.4892" y1="445.2267" x2="-157.7452" y2="445.2267" gradientTransform="matrix(-3.5185 12.1901 12.1901 3.5185 -5836.0596 428.2459)">
				<stop  offset="0" style="stop-color:#FFFFFF"/>
				<stop  offset="1" style="stop-color:#000000"/>
			</linearGradient>
			<polygon id="XMLID_146_" class="st1" points="385.5,7 319.8,234.5 -87.2,117.1 -21.5,-110.4 			"/>
		</g>
	</mask>
	<g id="XMLID_517_" class="st2">
		<g id="XMLID_518_">
			<defs>
				<rect id="XMLID_519_" x="49.5" y="29.9" width="31.4" height="14"/>
			</defs>
			<clipPath id="XMLID_4_">
				<use xlink:href="#XMLID_519_"  style="overflow:visible;"/>
			</clipPath>
			<path id="XMLID_520_" class="st3" d="M65.2,42.1"/>
		</g>
	</g>
	<defs>
		<filter id="Adobe_OpacityMaskFilter_1_" filterUnits="userSpaceOnUse" x="7.5" y="26.3" width="34.5" height="18">
			<feFlood  style="flood-color:white;flood-opacity:1" result="back"/>
			<feBlend  in="SourceGraphic" in2="back" mode="normal"/>
		</filter>
	</defs>
	<mask maskUnits="userSpaceOnUse" x="7.5" y="26.3" width="34.5" height="18" id="XMLID_5_">
		<g id="XMLID_137_" class="st4">
			
				<linearGradient id="XMLID_6_" gradientUnits="userSpaceOnUse" x1="-154.0816" y1="445.1049" x2="-152.3375" y2="445.1049" gradientTransform="matrix(-4.2725 14.8023 14.8023 4.2725 -7096.4502 436.7163)">
				<stop  offset="0" style="stop-color:#FFFFFF"/>
				<stop  offset="1" style="stop-color:#000000"/>
			</linearGradient>
			<polygon id="XMLID_138_" class="st5" points="385.5,7 319.8,234.5 -87.2,117.1 -21.5,-110.4 			"/>
		</g>
	</mask>
	<g id="XMLID_509_" class="st6">
		<g id="XMLID_510_">
			<defs>
				<rect id="XMLID_511_" x="7.5" y="26.3" width="34.5" height="18"/>
			</defs>
			<clipPath id="XMLID_7_">
				<use xlink:href="#XMLID_511_"  style="overflow:visible;"/>
			</clipPath>
			<g id="XMLID_512_" class="st7">
				<defs>
					<path id="XMLID_513_" d="M26.3,42.6l-3.1-4c0.1,0.2,0.2,0.3,0.3,0.5L26.3,42.6z"/>
				</defs>
				<clipPath id="XMLID_8_">
					<use xlink:href="#XMLID_513_"  style="overflow:visible;"/>
				</clipPath>
				
					<linearGradient id="XMLID_9_" gradientUnits="userSpaceOnUse" x1="-52.5184" y1="40.5763" x2="-50.7743" y2="40.5763" gradientTransform="matrix(1.000000e-03 0 0 -1.000000e-03 -132.3708 357.3931)">
					<stop  offset="0" style="stop-color:#ABCF3F"/>
					<stop  offset="1" style="stop-color:#59A044"/>
				</linearGradient>
				<rect id="XMLID_514_" x="23.2" y="38.6" class="st8" width="3.1" height="4"/>
			</g>
		</g>
	</g>
	<g id="XMLID_404_">
		<rect id="XMLID_506_" class="st9" width="77.9" height="92.9"/>
		<g id="XMLID_503_">
			<defs>
				<path id="XMLID_504_" d="M21.2,0.6C9.5,0.6,0,10.1,0,21.8v34.6c0,11.7,9.5,21.2,21.2,21.2h35.4c11.7,0,21.2-9.5,21.2-21.2v-2.7
					c0-3.9-3.2-7.1-7.1-7.1c-3.9,0-7.1,3.2-7.1,7.1v2.7c0,3.9-3.1,7-7,7H21.2c-3.9,0-7-3.1-7-7V22.1c0-3.9,3.1-7,7-7h35.3
					c0.9,0,1.6,0,2.3,0c0,0,0,0,0,0h3.7c8.7,0,16.3,6.8,8.4,18.6c-0.1,0.1-0.2,0.2-0.3,0.3c7.1-6.3,8.5-14.5,5.6-21.6
					c-3-7.3-10.6-11.8-19.8-11.8H21.2z"/>
			</defs>
			<clipPath id="XMLID_10_">
				<use xlink:href="#XMLID_504_"  style="overflow:visible;"/>
			</clipPath>
			
				<linearGradient id="XMLID_11_" gradientUnits="userSpaceOnUse" x1="-1523.1434" y1="1739.5767" x2="-1523.0483" y2="1739.5767" gradientTransform="matrix(356.2429 -978.7693 -978.7693 -356.2429 2245276 -871008.3125)">
				<stop  offset="0" style="stop-color:#59A044"/>
				<stop  offset="1" style="stop-color:#ABCF3F"/>
			</linearGradient>
			<polygon id="XMLID_505_" class="st10" points="-24.8,68.7 9.3,-24.9 104.1,9.6 70,103.2 			"/>
		</g>
		<g id="XMLID_492_">
			<defs>
				<path id="XMLID_493_" d="M21.2,0.6C9.5,0.6,0,10.1,0,21.8v34.6c0,11.7,9.5,21.2,21.2,21.2h35.4c11.7,0,21.2-9.5,21.2-21.2v-2.7
					c0-3.9-3.2-7.1-7.1-7.1c-3.9,0-7.1,3.2-7.1,7.1v2.7c0,3.9-3.1,7-7,7H21.2c-3.9,0-7-3.1-7-7V22.1c0-3.9,3.1-7,7-7h35.3
					c0.9,0,1.6,0,2.3,0c0,0,0,0,0,0h3.7c8.7,0,16.3,6.8,8.4,18.6c-0.1,0.1-0.2,0.2-0.3,0.3c7.1-6.3,8.5-14.5,5.6-21.6
					c-3-7.3-10.6-11.8-19.8-11.8H21.2z"/>
			</defs>
			<clipPath id="XMLID_12_">
				<use xlink:href="#XMLID_493_"  style="overflow:visible;"/>
			</clipPath>
			<g id="XMLID_494_" class="st11">
				<g id="XMLID_495_">
					<defs>
						<rect id="XMLID_496_" x="-26.2" y="-1.8" width="82.9" height="29.8"/>
					</defs>
					<clipPath id="XMLID_13_">
						<use xlink:href="#XMLID_496_"  style="overflow:visible;"/>
					</clipPath>
					<defs>
						<filter id="Adobe_OpacityMaskFilter_2_" filterUnits="userSpaceOnUse" x="-26.2" y="-1.8" width="82.9" height="29.8">
							<feFlood  style="flood-color:white;flood-opacity:1" result="back"/>
							<feBlend  in="SourceGraphic" in2="back" mode="normal"/>
						</filter>
					</defs>
					<mask maskUnits="userSpaceOnUse" x="-26.2" y="-1.8" width="82.9" height="29.8" id="XMLID_14_">
						<g id="XMLID_127_" class="st12">
							
								<linearGradient id="XMLID_15_" gradientUnits="userSpaceOnUse" x1="-1530.1125" y1="1746.8661" x2="-1530.0173" y2="1746.8661" gradientTransform="matrix(-1.3107 150.192 150.192 1.3107 -264355.5312 227520.2812)">
								<stop  offset="0" style="stop-color:#FFFFFF"/>
								<stop  offset="0.1348" style="stop-color:#DBDBDB"/>
								<stop  offset="0.738" style="stop-color:#3F3F3F"/>
								<stop  offset="1" style="stop-color:#000000"/>
							</linearGradient>
							<polygon id="XMLID_128_" class="st13" points="57,-1.8 56.7,28.8 -26.4,28 -26.2,-2.5 							"/>
						</g>
					</mask>
					<g id="XMLID_499_" class="st14">
						<g id="XMLID_500_">
							<defs>
								<rect id="XMLID_501_" x="-26.2" y="-1.8" width="82.9" height="29.8"/>
							</defs>
							<clipPath id="XMLID_16_">
								<use xlink:href="#XMLID_501_"  style="overflow:visible;"/>
							</clipPath>
							<path id="XMLID_502_" class="st15" d="M36.4-0.8c-75.9-3.6-60.5,18.8-60.5,23c4.9,2,79.2-2.8,74.4,4.8
								c-0.1,0.2-0.3,0.4-0.4,0.6c-0.1,0.1-0.2,0.2-0.3,0.2c0.3-0.3,0.7-0.6,1-0.9c0.1-0.1,0.1-0.1,0.2-0.2c0.3-0.3,0.6-0.6,0.9-0.9
								c0-0.1,0.1-0.1,0.1-0.2c0.2-0.3,0.5-0.6,0.7-0.9c0-0.1,0.1-0.1,0.1-0.2c0.2-0.3,0.5-0.7,0.7-1c0-0.1,0.1-0.2,0.1-0.2
								c0.2-0.3,0.4-0.7,0.6-1c0,0,0,0,0,0c0.2-0.3,0.3-0.7,0.5-1c0-0.1,0.1-0.2,0.1-0.2c0.1-0.3,0.3-0.7,0.4-1c0-0.1,0-0.1,0.1-0.2
								c0.1-0.3,0.2-0.6,0.3-0.9c0-0.1,0-0.1,0-0.2c0.1-0.3,0.1-0.7,0.2-1c0-0.1,0-0.2,0-0.3c0.1-0.4,0.1-0.7,0.1-1.1
								C52-1.5,36.4-0.8,36.4-0.8"/>
						</g>
					</g>
				</g>
			</g>
		</g>
		<g id="XMLID_406_">
			<defs>
				<rect id="XMLID_407_" width="77.9" height="92.9"/>
			</defs>
			<clipPath id="XMLID_17_">
				<use xlink:href="#XMLID_407_"  style="overflow:visible;"/>
			</clipPath>
			<path id="XMLID_491_" class="st16" d="M62.4,17.9c0.6,1.5,1.1,3.6-1.3,5.7L40.7,38.4l-6.1-7.9c-2.4-3.1-6.9-3.7-10-1.3
				c-3.1,2.4-3.7,6.9-1.3,10l10.4,13.4c2.4,3.1,6.7,3.7,9.8,1.4l23.5-17.2c0.3-0.2,3.4-2.6,3.6-2.8c0.1-0.1,0.2-0.2,0.3-0.3
				c7.9-11.8,0.3-18.6-8.4-18.6h-3.7C60.7,15.5,61.8,16.5,62.4,17.9"/>
			<defs>
				<filter id="Adobe_OpacityMaskFilter_3_" filterUnits="userSpaceOnUse" x="63.9" y="41.6" width="1.7" height="0.8">
					<feFlood  style="flood-color:white;flood-opacity:1" result="back"/>
					<feBlend  in="SourceGraphic" in2="back" mode="normal"/>
				</filter>
			</defs>
			<mask maskUnits="userSpaceOnUse" x="63.9" y="41.6" width="1.7" height="0.8" id="XMLID_18_">
				<g id="XMLID_113_" class="st17">
					
						<linearGradient id="XMLID_19_" gradientUnits="userSpaceOnUse" x1="-1632.5096" y1="1781.803" x2="-1632.4144" y2="1781.803" gradientTransform="matrix(-3.5185 12.1901 12.1901 3.5185 -27422.1289 13666.1475)">
						<stop  offset="0" style="stop-color:#FFFFFF"/>
						<stop  offset="1" style="stop-color:#000000"/>
					</linearGradient>
					<polygon id="XMLID_114_" class="st18" points="102.7,7.1 71.9,113.7 -24.8,85.8 6,-20.8 					"/>
				</g>
			</mask>
			<g id="XMLID_487_" class="st19">
				<g id="XMLID_488_">
					<defs>
						<rect id="XMLID_489_" x="63.9" y="41.6" width="1.7" height="0.8"/>
					</defs>
					<clipPath id="XMLID_20_">
						<use xlink:href="#XMLID_489_"  style="overflow:visible;"/>
					</clipPath>
					<path id="XMLID_490_" class="st20" d="M64.8,42.3"/>
				</g>
			</g>
			<defs>
				<filter id="Adobe_OpacityMaskFilter_4_" filterUnits="userSpaceOnUse" x="64.9" y="38.5" width="1.7" height="0.8">
					<feFlood  style="flood-color:white;flood-opacity:1" result="back"/>
					<feBlend  in="SourceGraphic" in2="back" mode="normal"/>
				</filter>
			</defs>
			<mask maskUnits="userSpaceOnUse" x="64.9" y="38.5" width="1.7" height="0.8" id="XMLID_21_">
				<g id="XMLID_105_" class="st21">
					
						<linearGradient id="XMLID_22_" gradientUnits="userSpaceOnUse" x1="-1630.0331" y1="1781.7172" x2="-1629.938" y2="1781.7172" gradientTransform="matrix(-3.5185 12.1901 12.1901 3.5185 -27411.4531 13633.0869)">
						<stop  offset="0" style="stop-color:#FFFFFF"/>
						<stop  offset="1" style="stop-color:#000000"/>
					</linearGradient>
					<polygon id="XMLID_106_" class="st22" points="102.7,7.1 71.9,113.7 -24.8,85.8 6,-20.8 					"/>
				</g>
			</mask>
			<g id="XMLID_481_" class="st23">
				<g id="XMLID_482_">
					<defs>
						<rect id="XMLID_483_" x="64.9" y="38.5" width="1.7" height="0.8"/>
					</defs>
					<clipPath id="XMLID_23_">
						<use xlink:href="#XMLID_483_"  style="overflow:visible;"/>
					</clipPath>
					<path id="XMLID_484_" class="st24" d="M65.8,39.2"/>
				</g>
			</g>
			<g id="XMLID_468_" class="st25">
				<g id="XMLID_469_">
					<defs>
						<rect id="XMLID_470_" x="55" y="1" width="23.6" height="33.1"/>
					</defs>
					<clipPath id="XMLID_24_">
						<use xlink:href="#XMLID_470_"  style="overflow:visible;"/>
					</clipPath>
					<defs>
						<filter id="Adobe_OpacityMaskFilter_5_" filterUnits="userSpaceOnUse" x="55" y="0.3" width="23.6" height="33.8">
							<feFlood  style="flood-color:white;flood-opacity:1" result="back"/>
							<feBlend  in="SourceGraphic" in2="back" mode="normal"/>
						</filter>
					</defs>
					<mask maskUnits="userSpaceOnUse" x="55" y="0.3" width="23.6" height="33.8" id="XMLID_25_">
						<g id="XMLID_95_" class="st26">
							
								<linearGradient id="XMLID_26_" gradientUnits="userSpaceOnUse" x1="-1529.5786" y1="1745.0399" x2="-1529.4834" y2="1745.0399" gradientTransform="matrix(-1.4966 171.4979 171.4979 1.4966 -301493.0625 259709.3438)">
								<stop  offset="0" style="stop-color:#FFFFFF"/>
								<stop  offset="1" style="stop-color:#000000"/>
							</linearGradient>
							<polygon id="XMLID_96_" class="st27" points="78.9,1 78.6,34.3 54.7,34.1 55,0.8 							"/>
						</g>
					</mask>
					<g id="XMLID_473_" class="st28">
						<g id="XMLID_474_">
							<defs>
								<rect id="XMLID_475_" x="55" y="1" width="23.6" height="33.1"/>
							</defs>
							<clipPath id="XMLID_27_">
								<use xlink:href="#XMLID_475_"  style="overflow:visible;"/>
							</clipPath>
							<g id="XMLID_476_" class="st29">
								<defs>
									<path id="XMLID_477_" d="M55.8,1.7c11,2.8,12.5,9.7,12.4,14.5c5.6,2.3,8.7,8.1,3.2,16.8c-0.1,0.2-0.3,0.5-0.5,0.7
										c-0.1,0.1-0.2,0.2-0.3,0.3c0.4-0.4,0.8-0.7,1.1-1.1c0.1-0.1,0.2-0.2,0.2-0.2c0.3-0.4,0.7-0.7,1-1.1
										c0.1-0.1,0.1-0.1,0.2-0.2c0.3-0.3,0.6-0.7,0.8-1c0-0.1,0.1-0.1,0.1-0.2c0.3-0.4,0.5-0.8,0.8-1.1c0.1-0.1,0.1-0.2,0.2-0.3
										c0.2-0.4,0.5-0.8,0.7-1.2c0,0,0,0,0,0c0.2-0.4,0.4-0.8,0.5-1.2c0-0.1,0.1-0.2,0.1-0.3c0.2-0.4,0.3-0.8,0.4-1.2
										c0-0.1,0-0.2,0.1-0.2c0.1-0.4,0.2-0.7,0.3-1.1c0-0.1,0-0.1,0.1-0.2c0.1-0.4,0.2-0.8,0.2-1.2c0-0.1,0-0.2,0-0.3
										c0.1-0.4,0.1-0.8,0.1-1.2C75.6,0.3,55.8,1.7,55.8,1.7"/>
								</defs>
								<clipPath id="XMLID_28_">
									<use xlink:href="#XMLID_477_"  style="overflow:visible;"/>
								</clipPath>
								
									<linearGradient id="XMLID_29_" gradientUnits="userSpaceOnUse" x1="-4.547474e-12" y1="17.152" x2="9.513658e-02" y2="17.152" gradientTransform="matrix(1.000000e-03 0 0 -1.000000e-03 -1320.1434 1147.8077)">
									<stop  offset="0" style="stop-color:#ABCF3F"/>
									<stop  offset="1" style="stop-color:#59A044"/>
								</linearGradient>
								<rect id="XMLID_478_" x="55.8" y="0.3" class="st30" width="21.9" height="33.7"/>
							</g>
						</g>
					</g>
				</g>
			</g>
			<g id="XMLID_459_" class="st31">
				<g id="XMLID_460_">
					<defs>
						<rect id="XMLID_461_" x="58.1" y="14.4" width="17.1" height="20.3"/>
					</defs>
					<clipPath id="XMLID_30_">
						<use xlink:href="#XMLID_461_"  style="overflow:visible;"/>
					</clipPath>
					<defs>
						<filter id="Adobe_OpacityMaskFilter_6_" filterUnits="userSpaceOnUse" x="58.1" y="14.4" width="17.1" height="20.3">
							<feFlood  style="flood-color:white;flood-opacity:1" result="back"/>
							<feBlend  in="SourceGraphic" in2="back" mode="normal"/>
						</filter>
					</defs>
					<mask maskUnits="userSpaceOnUse" x="58.1" y="14.4" width="17.1" height="20.3" id="XMLID_31_">
						<g id="XMLID_84_" class="st32">
							
								<linearGradient id="XMLID_32_" gradientUnits="userSpaceOnUse" x1="-1529.277" y1="1742.5199" x2="-1529.1818" y2="1742.5199" gradientTransform="matrix(-70.6883 244.9054 244.9054 70.6883 -534784.5 251365.3125)">
								<stop  offset="0" style="stop-color:#FFFFFF"/>
								<stop  offset="1" style="stop-color:#000000"/>
							</linearGradient>
							<polygon id="XMLID_85_" class="st33" points="80.6,16 73.9,39.3 52.7,33.2 59.4,9.9 							"/>
						</g>
					</mask>
					<g id="XMLID_464_" class="st34">
						<g id="XMLID_465_">
							<defs>
								<rect id="XMLID_466_" x="58.1" y="14.4" width="17.1" height="20.3"/>
							</defs>
							<clipPath id="XMLID_33_">
								<use xlink:href="#XMLID_466_"  style="overflow:visible;"/>
							</clipPath>
							<path id="XMLID_467_" class="st35" d="M62.6,15.1h-3.7c1.8,0.4,2.9,1.4,3.4,2.8c0.5,1.1,0.8,2.5,0.1,3.9
								c10.2,0.9,8.8,10.1,7.5,12.8l0,0c0.1-0.1,0.2-0.1,0.3-0.2c0,0,0,0,0,0c0.1-0.1,0.1-0.1,0.2-0.2c0,0,0,0,0,0
								c0,0,0.1-0.1,0.1-0.1c0,0,0,0,0,0c0,0,0.1-0.1,0.1-0.1c0.1-0.1,0.2-0.2,0.3-0.3C78.9,21.9,71.4,15.1,62.6,15.1"/>
						</g>
					</g>
				</g>
			</g>
			<defs>
				<filter id="Adobe_OpacityMaskFilter_7_" filterUnits="userSpaceOnUse" x="22.1" y="38.1" width="4.8" height="4.8">
					<feFlood  style="flood-color:white;flood-opacity:1" result="back"/>
					<feBlend  in="SourceGraphic" in2="back" mode="normal"/>
				</filter>
			</defs>
			<mask maskUnits="userSpaceOnUse" x="22.1" y="38.1" width="4.8" height="4.8" id="XMLID_34_">
				<g id="XMLID_69_" class="st36">
					
						<linearGradient id="XMLID_35_" gradientUnits="userSpaceOnUse" x1="-1548.0558" y1="1755.3303" x2="-1547.9607" y2="1755.3303" gradientTransform="matrix(-17.2435 59.7416 59.7416 17.2435 -131519.8594 62257.1523)">
						<stop  offset="0" style="stop-color:#FFFFFF"/>
						<stop  offset="1" style="stop-color:#000000"/>
					</linearGradient>
					<polygon id="XMLID_70_" class="st37" points="102.7,7.1 71.9,113.7 -24.8,85.8 6,-20.8 					"/>
				</g>
			</mask>
			<g id="XMLID_453_" class="st38">
				<g id="XMLID_454_">
					<defs>
						<rect id="XMLID_455_" x="22.1" y="38.1" width="4.8" height="4.8"/>
					</defs>
					<clipPath id="XMLID_36_">
						<use xlink:href="#XMLID_455_"  style="overflow:visible;"/>
					</clipPath>
					<g id="XMLID_456_" class="st39">
						<defs>
							<path id="XMLID_457_" d="M26.1,42.8l-3.1-4c0.1,0.2,0.2,0.3,0.3,0.5L26.1,42.8z"/>
						</defs>
						<clipPath id="XMLID_37_">
							<use xlink:href="#XMLID_457_"  style="overflow:visible;"/>
						</clipPath>
						
							<linearGradient id="XMLID_38_" gradientUnits="userSpaceOnUse" x1="2.910383e-11" y1="40.759" x2="9.513658e-02" y2="40.759" gradientTransform="matrix(1.000000e-03 0 0 -1.000000e-03 -1320.1434 1147.8077)">
							<stop  offset="0" style="stop-color:#ABCF3F"/>
							<stop  offset="1" style="stop-color:#59A044"/>
						</linearGradient>
						<rect id="XMLID_458_" x="23" y="38.8" class="st40" width="3.1" height="4"/>
					</g>
				</g>
			</g>
			<defs>
				<filter id="Adobe_OpacityMaskFilter_8_" filterUnits="userSpaceOnUse" x="13.4" y="46.1" width="65.4" height="31.7">
					<feFlood  style="flood-color:white;flood-opacity:1" result="back"/>
					<feBlend  in="SourceGraphic" in2="back" mode="normal"/>
				</filter>
			</defs>
			<mask maskUnits="userSpaceOnUse" x="13.4" y="46.1" width="65.4" height="31.7" id="XMLID_39_">
				<g id="XMLID_61_" class="st41">
					
						<linearGradient id="XMLID_40_" gradientUnits="userSpaceOnUse" x1="-1522.0237" y1="1743.3315" x2="-1521.9286" y2="1743.3315" gradientTransform="matrix(465.5933 0 0 -465.5933 708658.6875 811729.9375)">
						<stop  offset="0" style="stop-color:#FFFFFF"/>
						<stop  offset="1" style="stop-color:#000000"/>
					</linearGradient>
					<rect id="XMLID_62_" class="st42" width="77.9" height="92.9"/>
				</g>
			</mask>
			<g id="XMLID_447_" class="st43">
				<g id="XMLID_448_">
					<defs>
						<rect id="XMLID_449_" x="13.4" y="46.1" width="65.4" height="31.7"/>
					</defs>
					<clipPath id="XMLID_41_">
						<use xlink:href="#XMLID_449_"  style="overflow:visible;"/>
					</clipPath>
					<path id="XMLID_450_" class="st44" d="M77.9,56.6v-2.7c0-3.9-3.2-7.1-7.1-7.1c-3.9,0-7.1,3.2-7.1,7.1v2.7c0,3.9-3.2,6.9-7,6.9
						H21.2c-3.7,0-6.8-2.9-7-6.6v0c0.3,6.2,2.2,20.9,15.9,20.9h26.5C68.4,77.7,77.9,68.3,77.9,56.6"/>
				</g>
			</g>
			<g id="XMLID_432_" class="st45">
				<g id="XMLID_433_">
					<defs>
						<rect id="XMLID_438_" x="13.4" y="56.2" width="18.6" height="21.6"/>
					</defs>
					<clipPath id="XMLID_42_">
						<use xlink:href="#XMLID_438_"  style="overflow:visible;"/>
					</clipPath>
					<defs>
						<filter id="Adobe_OpacityMaskFilter_9_" filterUnits="userSpaceOnUse" x="13.4" y="56.2" width="18.6" height="21.6">
							<feFlood  style="flood-color:white;flood-opacity:1" result="back"/>
							<feBlend  in="SourceGraphic" in2="back" mode="normal"/>
						</filter>
					</defs>
					<mask maskUnits="userSpaceOnUse" x="13.4" y="56.2" width="18.6" height="21.6" id="XMLID_43_">
						<g id="XMLID_55_" class="st46">
							
								<linearGradient id="XMLID_44_" gradientUnits="userSpaceOnUse" x1="-1531.1356" y1="1743.5894" x2="-1531.0404" y2="1743.5894" gradientTransform="matrix(-72.0537 249.6358 249.6358 72.0537 -545560.3125 256649.7031)">
								<stop  offset="0" style="stop-color:#FFFFFF"/>
								<stop  offset="1" style="stop-color:#000000"/>
							</linearGradient>
							<polygon id="XMLID_56_" class="st47" points="37.7,57.9 30.6,82.8 7.6,76.1 14.8,51.2 							"/>
						</g>
					</mask>
					<g id="XMLID_441_" class="st48">
						<g id="XMLID_442_">
							<defs>
								<rect id="XMLID_443_" x="13.4" y="56.2" width="18.6" height="21.6"/>
							</defs>
							<clipPath id="XMLID_45_">
								<use xlink:href="#XMLID_443_"  style="overflow:visible;"/>
							</clipPath>
							<path id="XMLID_444_" class="st49" d="M28.2,63.5h-7c-3.7,0-6.8-2.9-7-6.6l0,0c0.3,6.2,2.3,20.9,16,20.9h0.9
								C31.1,77.7,23.1,71.8,28.2,63.5"/>
						</g>
					</g>
				</g>
			</g>
		</g>
		<rect id="XMLID_405_" class="st9" width="77.9" height="92.9"/>
	</g>
	<g id="XMLID_391_">
		<path id="XMLID_393_" d="M325.7,50.5c0,1.7,1.4,2.8,2.8,2.8c1.3,0,2.1-0.6,3-1.7l6.4-8.3l6.5,8.5c0.7,1,1.5,1.5,2.8,1.5
			c1.7,0,3-1.3,3-3c0-0.9-0.4-1.7-0.9-2.3l-7.4-9.1l7-8.6c0.6-0.8,0.9-1.5,0.9-2.3c0-1.7-1.4-2.8-2.8-2.8c-1.3,0-2.1,0.6-3,1.7
			l-6,7.9l-6-8.1c-0.7-1-1.5-1.5-2.8-1.5c-1.7,0-3,1.3-3,3c0,0.9,0.4,1.7,0.9,2.3l7,8.6l-7.5,9.2C326,48.9,325.7,49.6,325.7,50.5
			 M306.3,38.8v-7.9h6c3,0,4.8,1.3,4.8,4v0.1c0,2.3-1.7,3.9-4.7,3.9H306.3z M300.2,50.2c0,1.7,1.3,3,3,3c1.7,0,3-1.3,3-3v-6h4.9
			l5.9,7.5c0.7,0.9,1.6,1.6,3,1.6c1.5,0,2.9-1.1,2.9-2.8c0-0.9-0.4-1.6-1-2.3l-4.2-5.1c3.4-1.4,5.5-4.1,5.5-8.4v-0.1
			c0-2.6-0.8-4.8-2.4-6.3c-1.8-1.8-4.5-2.8-8.1-2.8h-9.6c-1.7,0-3,1.3-3,3V50.2z M279.4,41.5l3.8-9.1l3.8,9.1H279.4z M269.6,50.4
			c0,1.6,1.2,2.8,2.8,2.8c1.3,0,2.3-0.7,2.8-1.9l1.9-4.5h12.2l1.9,4.3c0.6,1.3,1.5,2.1,2.9,2.1c1.6,0,2.9-1.3,2.9-2.9
			c0-0.4-0.1-0.8-0.3-1.2L287,27.4c-0.7-1.5-1.9-2.4-3.5-2.4h-0.4c-1.7,0-2.9,0.9-3.6,2.4l-9.6,21.8C269.8,49.6,269.6,50,269.6,50.4
			 M238.8,50.3c0,1.7,1.3,3,3,3c1.7,0,3-1.3,3-3V36.6l5.3,8.1c0.6,0.9,1.4,1.5,2.5,1.5c1.1,0,1.9-0.6,2.5-1.5l5.3-8.2v13.8
			c0,1.7,1.3,3,3,3c1.7,0,3-1.3,3-3v-22c0-1.7-1.3-3-3-3h-0.7c-1.2,0-2.1,0.5-2.7,1.5l-7.4,12l-7.3-12c-0.6-0.9-1.5-1.6-2.8-1.6
			h-0.7c-1.7,0-3,1.3-3,3V50.3z M212.2,50.2c0,1.7,1.3,3,3,3s3-1.3,3-3v-5.5l3.5-3.2l7.9,10.4c0.7,0.9,1.4,1.5,2.6,1.5
			c1.8,0,3.1-1.3,3.1-3c0-0.9-0.4-1.5-0.8-2.1L226,37.5l7.8-7.3c0.7-0.6,1.1-1.3,1.1-2.3c0-1.5-1.1-2.8-2.8-2.8
			c-1.1,0-1.8,0.4-2.6,1.2l-11.2,11.1v-9.3c0-1.7-1.3-3-3-3s-3,1.3-3,3V50.2z M197.6,53.5c4.4,0,7.3-1.3,9.8-3.5
			c0.6-0.5,1-1.2,1-2.2c0-1.5-1.3-2.8-2.8-2.8c-0.7,0-1.3,0.3-1.8,0.7c-1.7,1.4-3.4,2.2-6,2.2c-4.7,0-8-4-8-8.7v-0.1
			c0-4.7,3.4-8.6,8-8.6c2.2,0,4,0.7,5.7,2c0.4,0.3,1,0.6,1.8,0.6c1.7,0,3-1.3,3-3c0-1.1-0.6-1.9-1.2-2.4c-2.3-1.7-5.1-2.8-9.2-2.8
			c-8.5,0-14.4,6.4-14.4,14.3v0.1C183.4,47.2,189.5,53.5,197.6,53.5 M123.8,50.2c0,1.7,1.3,3,3,3c1.7,0,3-1.3,3-3v-8.3h11.2v8.3
			c0,1.7,1.3,3,3,3s3-1.3,3-3v-22c0-1.7-1.3-3-3-3s-3,1.3-3,3v8.1h-11.2v-8.1c0-1.7-1.3-3-3-3c-1.7,0-3,1.3-3,3V50.2z M109.2,53.5
			c4.4,0,7.3-1.3,9.8-3.5c0.6-0.5,1-1.2,1-2.2c0-1.5-1.3-2.8-2.8-2.8c-0.7,0-1.3,0.3-1.8,0.7c-1.7,1.4-3.4,2.2-6,2.2
			c-4.7,0-8-4-8-8.7v-0.1c0-4.7,3.4-8.6,8-8.6c2.2,0,4,0.7,5.7,2c0.4,0.3,1,0.6,1.8,0.6c1.7,0,3-1.3,3-3c0-1.1-0.6-1.9-1.2-2.4
			c-2.3-1.7-5.1-2.8-9.2-2.8c-8.5,0-14.4,6.4-14.4,14.3v0.1C95,47.2,101,53.5,109.2,53.5"/>
		<path id="XMLID_392_" d="M172.7,53.2h-12.9c-4.3,0-7.7-3.5-7.7-7.7V32.8c0-4.3,3.5-7.7,7.7-7.7h12.9c3.4,0,6.1,1.6,7.2,4.3
			c1.1,2.6,0.6,5.6-2,7.9c-0.1,0.1-1.2,1-1.3,1l-8.6,6.3c-1.1,0.8-2.7,0.6-3.6-0.5l-3.8-4.9c-0.9-1.1-0.7-2.8,0.5-3.6
			c1.1-0.9,2.8-0.7,3.6,0.5l2.2,2.9l7.4-5.4c0.9-0.7,0.7-1.5,0.5-2.1c-0.3-0.7-0.9-1.1-2.1-1.1h-12.9c-1.4,0-2.6,1.1-2.6,2.6v12.6
			c0,1.4,1.1,2.6,2.6,2.6h12.9c1.4,0,2.6-1.1,2.6-2.6v-1c0-1.4,1.2-2.6,2.6-2.6s2.6,1.2,2.6,2.6v1C180.4,49.7,177,53.2,172.7,53.2"
			/>
	</g>
</g>
</svg>
