<?xml version="1.0" encoding="utf-8"?>
<!-- Generator: Adobe Illustrator 20.1.0, SVG Export Plug-In . SVG Version: 6.00 Build 0)  -->
<svg version="1.1" id="Layer_1" xmlns="http://www.w3.org/2000/svg" xmlns:xlink="http://www.w3.org/1999/xlink" x="0px" y="0px"
	 width="1400px" height="300px" viewBox="0 0 1400 300" style="enable-background:new 0 0 1400 300;" xml:space="preserve">
<style type="text/css">
	.st0{fill:#181818;}
	.st1{fill:#473EFF;}
</style>
<path class="st0" d="M175.8,141.2c-16.8-5.6-32.2-10.2-32.2-24.2c0-11.4,9.6-20.2,24.4-20.2c13,0,22.8,5.4,29.4,15.6l17.8-13.2
	c-11.2-13-25-21.6-47.2-21.6c-27,0-46.8,17.6-46.8,39.8c0,26.8,21.4,34.8,41.2,41.2c16.8,5.4,32.8,10.2,32.8,25.2
	c0,13-10.2,23.4-26.4,23.4c-14.8,0-26.4-7.4-35-21.2l-19.2,15c12.4,16,29.4,26.6,54.4,26.6c30.2,0,48.6-21.4,48.6-43.8
	C217.6,156.6,195.8,148,175.8,141.2z"/>
<path class="st0" d="M281,123.6c-29.4,0-52,23-52,52.4c0,29,21.2,51.6,52.8,51.6c22.2,0,38-10.8,46.8-27.2l-17.6-9.8
	c-5.2,10.8-15.6,18-29.2,18c-17.4,0-29.4-10.2-32.2-25.6h82.8v-8.4C332.4,145,310.6,123.6,281,123.6z M250.6,164.8
	c4-13.2,15.6-22.4,30.4-22.4c15.4,0,26.4,8,29.6,22.4H250.6z"/>
<path class="st0" d="M397.3,207.6c-18,0-31.6-14.4-31.6-32c0-17.8,13.4-32,31.2-32c13,0,23.2,7.2,28.2,18.8l19.2-8.2
	c-7.6-18-25.2-30.6-47.4-30.6c-29.2,0-52.2,22.6-52.2,52c0,28.8,22.6,52,52.2,52c23.4,0,40-13,48-31.4l-19.4-8.2
	C420.9,199.2,410.9,207.6,397.3,207.6z"/>
<path class="st0" d="M685.1,123.6c-29.4,0-52,23-52,52.4c0,29,21.2,51.6,52.8,51.6c22.2,0,38-10.8,46.8-27.2l-17.6-9.8
	c-5.2,10.8-15.6,18-29.2,18c-17.4,0-29.4-10.2-32.2-25.6h82.8v-8.4C736.5,145,714.7,123.6,685.1,123.6z M654.7,164.8
	c4-13.2,15.6-22.4,30.4-22.4c15.4,0,26.4,8,29.6,22.4H654.7z"/>
<polygon class="st0" points="858,196.6 832.2,125.6 811,125.6 784.8,196.6 762,125.6 740.2,125.4 773.4,225.6 794.4,225.6 
	821.4,154.2 848,225.6 868.6,225.6 903.4,125.6 881.6,125.6 "/>
<path class="st0" d="M1244.1,165.6c-14.4-3.2-23.6-5.2-23.6-12.4c0-6.4,5.8-12,17.2-12c10,0,17.8,4.4,22.4,11.4l17.8-9.8
	c-7.8-12-21.6-19.4-40.2-19.4c-23.6-0.2-38.6,14.4-38.6,30.2c0,20.6,17.6,26.2,34.6,29.8c12.6,2.6,24.2,4.4,24.2,12.4
	c0,7-6.2,13.2-18.2,13.2c-11.4,0-20.2-5.4-25.6-14.6l-19.2,10c8.4,14.8,23,23.2,43.8,23.2c28.4,0.2,40.4-18.4,40.4-32.2
	C1279.1,174.6,1260.5,169.2,1244.1,165.6z"/>
<path class="st0" d="M1283.4,100c0-2.5-1.6-5-4.9-5h-5.9v15.6h2.5v-5.7h1.7l4.1,5.7h2.9l-4.1-5.8
	C1282.1,104.4,1283.4,102.2,1283.4,100z M1275,102.5v-5.1h3.5c1.6,0,2.5,1.3,2.5,2.5c0,1.3-0.9,2.5-2.6,2.5L1275,102.5L1275,102.5z"
	/>
<path class="st0" d="M1277.5,86.8c-8.7,0-15.6,7.1-15.6,15.8s6.9,15.8,15.6,15.8s15.6-7.1,15.6-15.8S1286.2,86.8,1277.5,86.8z
	 M1277.5,115.8c-7.3,0-13.1-5.9-13.1-13.2c0-7.3,5.8-13.3,13.1-13.3c7.3,0,13.1,5.9,13.1,13.3
	C1290.6,109.9,1284.8,115.8,1277.5,115.8z"/>
<path class="st0" d="M527.8,180.6c0,13.5-11,24.5-24.5,24.5s-24.5-11-24.5-24.5v-55H457v55c0,25.5,20.8,46.3,46.3,46.3
	s46.3-20.8,46.3-46.3v-55h-21.8V180.6z"/>
<path class="st0" d="M1024.1,163.2v62.4h21.6v-62.4c0-9.2,7.5-16.7,16.7-16.7h22.5v-21.6h-22.5
	C1041.3,124.9,1024.1,142.1,1024.1,163.2z"/>
<path class="st0" d="M565.2,169.4v56.2h21.6v-56.2c0-12.6,10.3-22.9,22.9-22.9H626v-21.6h-16.3C585.2,124.9,565.2,144.9,565.2,169.4
	z"/>
<path class="st1" d="M957.3,122.8c-10.5,0-20.2,3.1-28.4,8.4l14.1,15.7c4.3-2.2,9.1-3.4,14.2-3.4c17.4,0,31.5,14.1,31.5,31.5
	c0,6.3-1.9,12.2-5.1,17.1l14.1,15.7c7.2-9,11.6-20.4,11.6-32.8C1009.5,146.2,986.1,122.8,957.3,122.8z"/>
<path class="st1" d="M957.3,206.5c-17.4,0-31.5-14.1-31.5-31.5c0-6.3,1.9-12.2,5.1-17.1l-14.1-15.7c-7.2,9-11.6,20.4-11.6,32.8
	c0,28.8,23.4,52.2,52.2,52.2c10.5,0,20.2-3.1,28.4-8.4l-14.1-15.7C967.3,205.3,962.4,206.5,957.3,206.5z"/>
<polygon class="st0" points="1099.8,79.6 1099.8,225.6 1121,225.6 1121,175.6 1121,79.6 "/>
<polygon class="st0" points="1167.3,125.6 1121,175.6 1167.3,225.6 1192.8,225.6 1146.5,175.6 1192.8,125.6 "/>
</svg>
