<?xml version="1.0" encoding="UTF-8" standalone="no"?>
<!-- Created with Inkscape (http://www.inkscape.org/) -->

<svg
   xmlns:dc="http://purl.org/dc/elements/1.1/"
   xmlns:cc="http://creativecommons.org/ns#"
   xmlns:rdf="http://www.w3.org/1999/02/22-rdf-syntax-ns#"
   xmlns:svg="http://www.w3.org/2000/svg"
   xmlns="http://www.w3.org/2000/svg"
   xmlns:xlink="http://www.w3.org/1999/xlink"
   xmlns:sodipodi="http://sodipodi.sourceforge.net/DTD/sodipodi-0.dtd"
   xmlns:inkscape="http://www.inkscape.org/namespaces/inkscape"
   width="472"
   height="184"
   id="svg"
   version="1.1"
   inkscape:version="0.48.2 r9819"
   sodipodi:docname="TOOOL logo.svg">
  <defs
     id="defs" />
  <sodipodi:namedview
     id="base"
     pagecolor="#ffffff"
     bordercolor="#666666"
     borderopacity="1.0"
     inkscape:pageopacity="0.0"
     inkscape:pageshadow="2"
     inkscape:zoom="2.7119565"
     inkscape:cx="236"
     inkscape:cy="92"
     inkscape:document-units="px"
     inkscape:current-layer="layer1"
     showgrid="true"
     inkscape:window-width="1413"
     inkscape:window-height="721"
     inkscape:window-x="162"
     inkscape:window-y="33"
     inkscape:window-maximized="0"
     inkscape:snap-grids="true"
     inkscape:object-paths="true">
    <inkscape:grid
       type="xygrid"
       id="grid4"
       empspacing="4"
       visible="true"
       enabled="true"
       snapvisiblegridlinesonly="true"
       spacingx="4px"
       spacingy="4px" />
    <inkscape:grid
       type="xygrid"
       id="grid.5"
       empspacing="32"
       visible="true"
       enabled="true"
       snapvisiblegridlinesonly="true"
       spacingx="0.5px"
       spacingy="0.5px" />
  </sodipodi:namedview>
  <metadata
     id="metadata">
    <rdf:RDF>
      <cc:Work
         rdf:about="">
        <dc:format>image/svg+xml</dc:format>
        <dc:type
           rdf:resource="http://purl.org/dc/dcmitype/StillImage" />
        <dc:title />
      </cc:Work>
    </rdf:RDF>
  </metadata>
  <g
     inkscape:label="Layer 1"
     inkscape:groupmode="layer"
     id="layer1">
    <path
       style="color:black;fill:#ce1126;fill-opacity:1;stroke:none;stroke-width:0.1;marker:none;visibility:visible;display:inline;overflow:visible;enable-background:accumulate"
       d="m 104,16 c 4,0 8,4 8,8 0,4 -4,8 -8,8 l -24,0 c -4,0 -8,4 -8,8 l 0,96 c 0,4 -4,8 -8,8 -4,0 -8,-4 -8,-8 l 0,-80 c 0,-4 -4,-8 -8,-8 l -24,0 c -4,0 -8,-4 -8,-8 l 0,-16 c 0,-4 4,-8 8,-8 z"
       id="T"
       inkscape:connector-curvature="0"
       sodipodi:nodetypes="szsssszssssssss" />
    <path
       id="O"
       style="color:black;fill:#ce1126;fill-opacity:1;stroke:none;stroke-width:0.1;marker:none;visibility:visible;display:inline;overflow:visible;enable-background:accumulate"
       d="m 136,40 c -28.5,0 -52,23.5 -52,52 0,28.5 23.5,52 52,52 28.5,0 52,-23.5 52,-52 0,-28.5 -23.5,-52 -52,-52 z m 0,12 c 22,0 40,19.5 40,40 0,20.5 -18,40 -40,40 -22,0 -40,-18 -40,-40 0,-22 18,-40 40,-40 z m -28,40 c 0,15.5 12.5,28 28,28 15.5,0 28,-12.5 28,-28 0,-15.5 -12,-25 -20.5,-27 -2,-0.470588 -2,-0.5 -2,1 l 0,10.5 c 0,3 -4,5.5 -4,7 0,1.5 4,4 4,7 0,3 -4,5.5 -4,7 0,1.5 1,3 1,4.5 0,1.5 -1,2.5 -2.5,2.5 -1.5,0 -5.5,-4 -5.5,-7 0,-3 4,-5.5 4,-7 0,-1.5 -4,-4 -4,-7 0,-3 4,-5.5 4,-7 0,-1.5 -4,-4 -4,-7 l 0,-3.5 c 0,-1.5 0,-1.470588 -2,-1 C 120,67 108,76.5 108,92 z"
       inkscape:connector-curvature="0"
       sodipodi:nodetypes="zzzzzzzzzzzzzssszzzzzzzzzsssz" />
    <use
       x="0"
       y="0"
       xlink:href="#O"
       id="O-clone1"
       transform="translate(92,-24)"
       width="360"
       height="136" />
    <use
       x="0"
       y="0"
       xlink:href="#O"
       id="O-clone2"
       transform="matrix(0,1,-1,0,412,-44)"
       width="360"
       height="136" />
    <path
       style="color:black;fill:#ce1126;fill-opacity:1;stroke:none;stroke-width:0.1;marker:none;visibility:visible;display:inline;overflow:visible;enable-background:accumulate"
       d="m 384,48 c 0,-4 4,-8 8,-8 4,0 8,4 8,8 l 0,40 c 0,16 16,16 16,32 l 0,24 c 0,4 4,8 8,8 l 24,0 c 4,0 8,4 8,8 0,4 -4,8 -8,8 l -56,0 c -4,0 -8,-4 -8,-8 z"
       id="L"
       inkscape:connector-curvature="0"
       sodipodi:nodetypes="szsssssszssss" />
    <path
       inkscape:connector-curvature="0"
       d="m 367.56199,157.55813 c -0.94498,0.007 -1.88655,0.18756 -2.82471,0.54263 -0.93816,0.35508 -1.72299,0.84432 -2.35449,1.46772 -0.6315,0.62341 -0.95974,1.34095 -0.98472,2.1526 0.007,0.61237 0.18878,1.11837 0.54624,1.51798 0.35745,0.39963 0.85003,0.60662 1.47773,0.62099 0.52899,-0.005 1.00623,-0.058 1.43173,-0.15812 0.42549,-0.10014 0.86824,-0.2161 1.32823,-0.34787 0.44035,-0.1217 0.82463,-0.23478 1.15286,-0.33925 0.32822,-0.10445 0.64926,-0.16003 0.96312,-0.16674 0.31096,0.002 0.54575,0.0843 0.70436,0.24724 0.1586,0.16292 0.23814,0.39484 0.23863,0.69574 -0.0243,0.59161 -0.2824,1.09249 -0.77433,1.50265 -0.49194,0.41017 -1.07205,0.72194 -1.74031,0.93532 -0.66827,0.21339 -1.27904,0.32072 -1.83231,0.322 -0.31529,-0.007 -0.5932,-0.0623 -0.83374,-0.16675 -0.24054,-0.10445 -0.41495,-0.21754 -0.52324,-0.33924 0.023,-0.045 0.0402,-0.093 0.0518,-0.14375 0.0115,-0.0508 0.0172,-0.11021 0.0172,-0.17825 0.006,-0.11548 -0.0518,-0.24102 -0.1725,-0.37662 -0.12075,-0.1356 -0.33925,-0.20939 -0.65549,-0.22137 -0.39004,0.0105 -0.67945,0.13321 -0.86824,0.36799 -0.18879,0.23479 -0.28271,0.51846 -0.28175,0.85099 0.0316,0.55343 0.35937,1.01055 0.98324,1.37136 0.62386,0.36081 1.3541,0.54768 2.19072,0.56062 0.63874,0.008 1.46956,-0.14084 2.49249,-0.44637 1.02291,-0.30553 1.94744,-0.81549 2.77359,-1.52991 0.82613,-0.7144 1.26341,-1.68096 1.31184,-2.89966 -0.0182,-0.7609 -0.26355,-1.33781 -0.73599,-1.73073 -0.47247,-0.3929 -1.06279,-0.59032 -1.77098,-0.59224 -0.42071,0.007 -0.83854,0.0623 -1.25348,0.16675 -0.41496,0.10446 -0.85579,0.21754 -1.32249,0.33924 -0.42598,0.11165 -0.81601,0.22186 -1.17011,0.33062 -0.3541,0.10878 -0.66939,0.16724 -0.94586,0.17538 -0.20796,-0.002 -0.36704,-0.0556 -0.47724,-0.161 -0.11021,-0.10541 -0.1658,-0.25108 -0.16675,-0.437 0.0254,-0.54575 0.41159,-1.04695 1.15861,-1.5036 0.747,-0.45663 1.70245,-0.69909 2.86634,-0.72737 0.47771,0.002 0.793,0.0268 0.94586,0.0747 0.15284,0.0479 0.24388,0.10734 0.27312,0.17825 0.0388,0.0709 0.0934,0.13034 0.16387,0.17825 0.0704,0.0479 0.19981,0.0728 0.38812,0.0747 0.27887,-0.003 0.49736,-0.0834 0.6555,-0.2415 0.15811,-0.15812 0.23861,-0.37661 0.24149,-0.65549 -0.0177,-0.43699 -0.27552,-0.76473 -0.77336,-0.98324 -0.49786,-0.21849 -1.12939,-0.32774 -1.8946,-0.32775 z m -14.41877,9.08489 c -0.0829,0.0599 -0.15286,0.14135 -0.20988,0.24437 -0.057,0.10302 -0.0867,0.21323 -0.0891,0.33062 -9.6e-4,0.299 0.0872,0.52324 0.2645,0.67274 0.17728,0.1495 0.44945,0.22425 0.81649,0.22425 0.6114,0 1.03881,-0.0863 1.28223,-0.25875 0.24341,-0.1725 0.36032,-0.43124 0.35075,-0.77624 -0.003,-0.11883 -0.0316,-0.23766 -0.0863,-0.35649 -0.0546,-0.11883 -0.11788,-0.21467 -0.18975,-0.2875 l 0,-4.20895 c 0.60517,-0.69381 1.16579,-1.22664 1.68185,-1.59848 0.51605,-0.37182 0.87542,-0.55965 1.07811,-0.56349 0.092,0.004 0.16099,0.0537 0.207,0.1495 0.046,0.0958 0.069,0.21467 0.069,0.3565 -0.0728,0.18783 -0.11117,0.38716 -0.115,0.59799 0.002,0.19694 0.0953,0.34931 0.27887,0.45712 0.18351,0.10781 0.44322,0.16244 0.77912,0.16387 0.39003,-0.004 0.67944,-0.0997 0.86824,-0.2875 0.18878,-0.18782 0.28269,-0.44465 0.28174,-0.77049 -0.0149,-1.04264 -0.1634,-1.7748 -0.44562,-2.19647 -0.28223,-0.42165 -0.60902,-0.62481 -0.98036,-0.60949 -0.55727,0.0134 -1.15047,0.21084 -1.7796,0.59224 -0.62914,0.38142 -1.26259,0.86633 -1.90035,1.45473 l -0.023,0 0,-0.80499 c 0.0762,-0.0925 0.11931,-0.18351 0.12937,-0.27312 0.0101,-0.0896 0.0129,-0.17488 0.009,-0.25587 -0.004,-0.23286 -0.10542,-0.41686 -0.30475,-0.55199 -0.19933,-0.13512 -0.47341,-0.20411 -0.82224,-0.207 -0.37758,0.007 -0.69191,0.0906 -0.94299,0.25012 -0.25108,0.15957 -0.38141,0.35219 -0.39099,0.57787 l 0.184,0.59799 z m -5.46832,-8.85489 c -1.56926,0.0393 -2.9502,0.73121 -4.14282,2.07572 -1.19264,1.34454 -1.82034,3.10593 -1.8831,5.28419 0.0216,1.17059 0.35218,2.00337 0.99186,2.49834 0.63968,0.49497 1.45904,0.73551 2.45809,0.72162 1.25873,-0.0292 2.31643,-0.26975 3.17311,-0.72151 0.85666,-0.45176 1.50377,-0.9393 1.94134,-1.46262 0.43756,-0.52331 0.65705,-0.90692 0.65848,-1.15083 0.01,-0.24341 -0.0561,-0.46958 -0.19838,-0.67849 -0.14232,-0.20891 -0.42119,-0.32008 -0.83661,-0.3335 -0.3843,0.009 -0.67946,0.11165 -0.88549,0.30762 -0.20605,0.19598 -0.29421,0.43077 -0.2645,0.70437 -0.2209,0.33589 -0.6301,0.67035 -1.2276,1.00336 -0.59752,0.33302 -1.29997,0.51222 -2.10735,0.53762 -0.49881,0.005 -0.88693,-0.11979 -1.16436,-0.37375 -0.27744,-0.25395 -0.41831,-0.66603 -0.42262,-1.23623 -0.004,-0.45999 0.0498,-0.87399 0.161,-1.24198 l 1.05798,-0.184 c 1.75451,-0.31376 3.06776,-0.62922 3.93977,-0.9464 0.87199,-0.31716 1.44755,-0.63944 1.72668,-0.96684 0.27911,-0.32738 0.4066,-0.66329 0.38247,-1.00772 0.0225,-0.5103 -0.21227,-1.09392 -0.70436,-1.75086 -0.49211,-0.65692 -1.37664,-1.01629 -2.65359,-1.07811 z m -0.092,1.74798 c 0.50119,0.0144 0.86152,0.14088 1.08099,0.37949 0.21944,0.23863 0.32677,0.50313 0.32199,0.79349 0.0609,0.15382 -0.20461,0.33494 -0.79636,0.54337 -0.59177,0.20844 -1.87496,0.48731 -3.84958,0.83662 0.35505,-0.75036 0.81792,-1.35985 1.38861,-1.82848 0.57067,-0.46861 1.18879,-0.71011 1.85435,-0.72449 z m -13.21238,-5.01394 c 0.068,-0.0738 0.11595,-0.16769 0.14375,-0.28174 0.0278,-0.11403 0.0412,-0.21945 0.0402,-0.31625 0.003,-0.3651 -0.0949,-0.6296 -0.29324,-0.79349 -0.19838,-0.16386 -0.51462,-0.24436 -0.94874,-0.2415 -0.55966,0.012 -0.92957,0.12604 -1.10974,0.34213 -0.18016,0.21611 -0.26258,0.4624 -0.24724,0.73886 0.004,0.12172 0.0359,0.2463 0.0949,0.37375 0.0589,0.12747 0.11931,0.21755 0.18112,0.27024 l 0,11.63785 c -0.10014,0.0982 -0.16435,0.21227 -0.19262,0.34212 -0.0283,0.12986 -0.0407,0.23815 -0.0374,0.32487 0.0182,0.48252 0.16004,0.80547 0.42549,0.96887 0.26545,0.16339 0.54528,0.2391 0.83949,0.22712 0.45903,0.002 0.8002,-0.0887 1.02349,-0.27312 0.22328,-0.18448 0.33445,-0.47677 0.33349,-0.87687 -0.006,-0.12793 -0.0398,-0.2573 -0.10062,-0.38812 -0.0609,-0.13081 -0.11165,-0.25443 -0.15237,-0.37087 l 0,-2.85196 0.046,-0.023 c 0.30857,0.39675 0.5769,0.72449 0.80499,0.98324 0.22807,0.25875 0.4274,0.48299 0.59799,0.67274 l 2.36897,2.55297 c 0.0695,0.20891 0.17201,0.37182 0.30762,0.48874 0.13559,0.11691 0.30138,0.17633 0.49737,0.17825 0.4528,-0.007 0.80642,-0.11931 1.06086,-0.33637 0.25442,-0.21706 0.3838,-0.49593 0.38812,-0.83662 -0.008,-0.24581 -0.0954,-0.43843 -0.26162,-0.57786 -0.16628,-0.13944 -0.36274,-0.19981 -0.58937,-0.18113 l -3.54195,-3.79495 3.26595,-3.35796 c 0.18351,-0.002 0.35697,-0.0781 0.52037,-0.22712 0.16339,-0.14901 0.25059,-0.35696 0.26162,-0.62386 4.7e-4,-0.29851 -0.0982,-0.55822 -0.29612,-0.77912 -0.1979,-0.22088 -0.49785,-0.33684 -0.89986,-0.34787 -0.2463,0.006 -0.44946,0.08 -0.60949,0.22137 -0.16005,0.14137 -0.24822,0.3129 -0.2645,0.51462 l -2.09297,2.02397 c -0.20269,0.21276 -0.42406,0.45426 -0.66412,0.72449 -0.24006,0.27026 -0.52468,0.60375 -0.85386,1.00049 l -0.046,-0.023 z m -7.63245,3.26596 c -0.64783,0.0221 -1.3014,0.20222 -1.96072,0.54049 -0.65933,0.3383 -1.16341,0.70246 -1.51223,1.09249 -0.69239,0.66892 -1.25684,1.39532 -1.69336,2.17922 -0.43651,0.78391 -0.66172,1.82082 -0.67561,3.11071 0.012,1.10112 0.34451,1.99235 0.99761,2.67372 0.65309,0.68136 1.55487,1.03211 2.70534,1.05223 0.70676,0 1.3402,-0.0977 1.90035,-0.29324 0.56013,-0.1955 1.08433,-0.48875 1.5726,-0.87974 0.65692,-0.50695 1.15429,-1.03403 1.49211,-1.58123 0.3378,-0.5472 0.50742,-0.90178 0.50887,-1.06374 0.008,-0.19118 -0.0709,-0.3953 -0.23575,-0.61236 -0.16484,-0.21706 -0.46192,-0.33493 -0.89124,-0.35362 -0.35554,0.006 -0.59896,0.10877 -0.73024,0.30762 -0.1313,0.19885 -0.22521,0.45664 -0.28174,0.77336 -0.15574,0.29038 -0.35603,0.55487 -0.60087,0.79349 -0.24486,0.23863 -0.4969,0.43412 -0.75612,0.58649 -0.22952,0.14088 -0.46623,0.25588 -0.71011,0.345 -0.2439,0.0891 -0.49786,0.13512 -0.76187,0.138 -0.69095,-0.005 -1.21228,-0.20173 -1.56398,-0.58937 -0.3517,-0.38764 -0.52804,-0.93484 -0.52899,-1.6416 0.0182,-0.78774 0.18879,-1.49498 0.51174,-2.12173 0.32295,-0.62673 0.68903,-1.13847 1.09824,-1.53523 0.33157,-0.3699 0.67465,-0.65356 1.02924,-0.85099 0.35457,-0.1974 0.73215,-0.29707 1.13273,-0.29899 0.37853,0.007 0.63919,0.068 0.78199,0.184 0.14278,0.11596 0.24245,0.24629 0.299,0.39099 0.0493,0.14472 0.12313,0.27505 0.22137,0.391 0.0982,0.11596 0.26976,0.17729 0.51462,0.18399 0.45807,-0.007 0.79539,-0.11403 1.01198,-0.32199 0.21658,-0.20795 0.32391,-0.47628 0.322,-0.80499 -0.0225,-0.50742 -0.33398,-0.93004 -0.93436,-1.26786 -0.6004,-0.3378 -1.3546,-0.51317 -2.2626,-0.52612 z m -8.73636,-4.25494 c -0.43987,0.0139 -0.77911,0.21611 -1.01773,0.60661 -0.23863,0.39053 -0.35938,0.88598 -0.36225,1.48636 -0.003,0.32776 0.0776,0.59225 0.2415,0.79349 0.16387,0.20126 0.42837,0.30476 0.79349,0.3105 0.36943,-0.004 0.68855,-0.19118 0.95736,-0.56062 0.26881,-0.36942 0.40968,-0.89554 0.42262,-1.57836 -10e-4,-0.33587 -0.0906,-0.59558 -0.26737,-0.77911 -0.17681,-0.18351 -0.43269,-0.27646 -0.76762,-0.27887 z m 0.98899,5.47393 c -0.004,-0.25635 -0.12267,-0.49688 -0.35649,-0.72162 -0.23384,-0.22472 -0.49067,-0.34451 -0.77049,-0.35937 -0.67419,0.0153 -1.09105,0.15717 -1.25061,0.42549 -0.15957,0.26834 -0.22569,0.57117 -0.19838,0.90849 0,0.10686 0.0172,0.21515 0.0517,0.32487 0.0345,0.10974 0.0863,0.20078 0.15525,0.27312 l 0,6.39392 c -0.0518,0.057 -0.10925,0.14998 -0.1725,0.27887 -0.0632,0.1289 -0.0978,0.29661 -0.10349,0.50312 0.006,0.33685 0.10349,0.60039 0.29324,0.79062 0.18975,0.19022 0.43699,0.28701 0.74174,0.29037 0.38189,0.002 0.75084,-0.0882 1.10686,-0.27025 0.35602,-0.18208 0.54672,-0.46766 0.57212,-0.85674 -0.005,-0.14183 -0.0407,-0.27216 -0.10637,-0.39099 -0.0657,-0.11883 -0.12986,-0.20316 -0.19263,-0.253 l 0,-6.57791 c 0.0297,-0.0676 0.0738,-0.16243 0.13225,-0.28463 0.0585,-0.12217 0.091,-0.2803 0.0978,-0.47436 z m -11.68507,0.45999 c 0.0168,-0.0719 0.0465,-0.16386 0.0891,-0.276 0.0426,-0.11211 0.0666,-0.22711 0.0719,-0.34499 0.004,-0.32295 -0.10206,-0.56828 -0.31912,-0.73599 -0.21706,-0.1677 -0.57068,-0.25203 -1.06086,-0.253 -0.27935,-0.005 -0.53714,0.0743 -0.77336,0.23862 -0.23623,0.16436 -0.36177,0.44515 -0.37662,0.84237 0.002,0.13848 0.0263,0.26402 0.0719,0.37662 0.0455,0.11261 0.0982,0.2094 0.15812,0.29037 l 0,13.50082 c -0.0589,0.10302 -0.10781,0.22473 -0.14662,0.36512 -0.0388,0.14039 -0.0589,0.30235 -0.0604,0.48587 0.011,0.33637 0.12122,0.56061 0.33062,0.67274 0.20939,0.11212 0.45184,0.16387 0.72736,0.15525 0.52516,0.001 0.90657,-0.0762 1.14424,-0.23287 0.23766,-0.15669 0.35457,-0.40106 0.35074,-0.73311 -10e-4,-0.13561 -0.0216,-0.2554 -0.0604,-0.35938 -0.0388,-0.10398 -0.0877,-0.20652 -0.14662,-0.30762 l 0,-5.35893 c 0.34882,0.322 0.77815,0.483 1.28798,0.483 0.84218,-0.004 1.72611,-0.28977 2.65178,-0.85696 0.92566,-0.56718 1.71588,-1.39119 2.37067,-2.47204 0.65477,-1.08084 0.99693,-2.39381 1.02647,-3.93891 -0.013,-0.96358 -0.26307,-1.71586 -0.75036,-2.25685 -0.48732,-0.54096 -1.13419,-0.816 -1.9406,-0.82511 -0.97319,-0.002 -1.8213,0.22042 -2.54435,0.66699 -0.72305,0.44659 -1.41592,1.12891 -2.07859,2.04697 l -0.023,0 z m 0,3.97895 c 0.25634,-0.46191 0.53138,-0.88932 0.82511,-1.28223 0.29372,-0.39291 0.58601,-0.73982 0.87686,-1.04074 0.52947,-0.53953 0.97126,-0.90369 1.32536,-1.09249 0.35409,-0.18878 0.68663,-0.27694 0.99761,-0.26449 0.4001,0.0115 0.69238,0.161 0.87687,0.44849 0.18447,0.2875 0.27551,0.644 0.27312,1.06949 -0.059,1.44515 -0.51031,2.66605 -1.35411,3.6627 -0.84381,0.99665 -1.72642,1.51606 -2.64784,1.55823 -0.24294,0.001 -0.46431,-0.0589 -0.66412,-0.18112 -0.19981,-0.12219 -0.36943,-0.31481 -0.50886,-0.57787 z m -10.13043,-8.92389 c 0.068,-0.0738 0.11596,-0.16769 0.14375,-0.28174 0.0278,-0.11403 0.0412,-0.21945 0.0403,-0.31625 0.003,-0.3651 -0.0949,-0.6296 -0.29324,-0.79349 -0.19838,-0.16386 -0.51463,-0.24436 -0.94874,-0.2415 -0.55966,0.012 -0.92958,0.12604 -1.10974,0.34213 -0.18016,0.21611 -0.26258,0.4624 -0.24724,0.73886 0.004,0.12172 0.0359,0.2463 0.0949,0.37375 0.0589,0.12747 0.11931,0.21755 0.18112,0.27024 l 0,11.63785 c -0.10014,0.0982 -0.16435,0.21227 -0.19262,0.34212 -0.0283,0.12986 -0.0407,0.23815 -0.0374,0.32487 0.0182,0.48252 0.16003,0.80547 0.42549,0.96887 0.26545,0.16339 0.54528,0.2391 0.83949,0.22712 0.45903,0.002 0.80019,-0.0887 1.02349,-0.27312 0.22328,-0.18448 0.33445,-0.47677 0.33349,-0.87687 -0.006,-0.12793 -0.0398,-0.2573 -0.10062,-0.38812 -0.0609,-0.13081 -0.11165,-0.25443 -0.15238,-0.37087 l 0,-2.85196 0.046,-0.023 c 0.30858,0.39675 0.57691,0.72449 0.80499,0.98324 0.22808,0.25875 0.42741,0.48299 0.598,0.67274 l 2.36897,2.55297 c 0.0695,0.20891 0.17201,0.37182 0.30762,0.48874 0.13559,0.11691 0.30138,0.17633 0.49737,0.17825 0.45279,-0.007 0.80641,-0.11931 1.06086,-0.33637 0.25442,-0.21706 0.38379,-0.49593 0.38812,-0.83662 -0.008,-0.24581 -0.0954,-0.43843 -0.26163,-0.57786 -0.16627,-0.13944 -0.36273,-0.19981 -0.58936,-0.18113 l -3.54196,-3.79495 3.26596,-3.35796 c 0.18351,-0.002 0.35697,-0.0781 0.52037,-0.22712 0.16338,-0.14901 0.25059,-0.35696 0.26162,-0.62386 4.7e-4,-0.29851 -0.0982,-0.55822 -0.29612,-0.77912 -0.1979,-0.22088 -0.49786,-0.33684 -0.89986,-0.34787 -0.2463,0.006 -0.44946,0.08 -0.6095,0.22137 -0.16004,0.14137 -0.24821,0.3129 -0.26449,0.51462 l -2.09298,2.02397 c -0.20269,0.21276 -0.42406,0.45426 -0.66411,0.72449 -0.24007,0.27026 -0.52469,0.60375 -0.85387,1.00049 l -0.046,-0.023 z m -7.63244,3.26596 c -0.64783,0.0221 -1.30141,0.20222 -1.96073,0.54049 -0.65933,0.3383 -1.1634,0.70246 -1.51223,1.09249 -0.69239,0.66892 -1.25684,1.39532 -1.69335,2.17922 -0.43652,0.78391 -0.66172,1.82082 -0.67562,3.11071 0.012,1.10112 0.34452,1.99235 0.99762,2.67372 0.65309,0.68136 1.55487,1.03211 2.70534,1.05223 0.70675,0 1.3402,-0.0977 1.90035,-0.29324 0.56013,-0.1955 1.08433,-0.48875 1.5726,-0.87974 0.65692,-0.50695 1.15429,-1.03403 1.49211,-1.58123 0.3378,-0.5472 0.50742,-0.90178 0.50887,-1.06374 0.008,-0.19118 -0.0709,-0.3953 -0.23575,-0.61236 -0.16484,-0.21706 -0.46192,-0.33493 -0.89124,-0.35362 -0.35554,0.006 -0.59896,0.10877 -0.73024,0.30762 -0.1313,0.19885 -0.22521,0.45664 -0.28175,0.77336 -0.15573,0.29038 -0.35602,0.55487 -0.60086,0.79349 -0.24486,0.23863 -0.4969,0.43412 -0.75612,0.58649 -0.22952,0.14088 -0.46623,0.25588 -0.71011,0.345 -0.2439,0.0891 -0.49786,0.13512 -0.76187,0.138 -0.69095,-0.005 -1.21228,-0.20173 -1.56398,-0.58937 -0.35171,-0.38764 -0.52804,-0.93484 -0.52899,-1.6416 0.0182,-0.78774 0.18878,-1.49498 0.51174,-2.12173 0.32295,-0.62673 0.68903,-1.13847 1.09824,-1.53523 0.33157,-0.3699 0.67465,-0.65356 1.02923,-0.85099 0.35458,-0.1974 0.73215,-0.29707 1.13274,-0.29899 0.37853,0.007 0.63919,0.068 0.78199,0.184 0.14278,0.11596 0.24245,0.24629 0.29899,0.39099 0.0494,0.14472 0.12314,0.27505 0.22138,0.391 0.0982,0.11596 0.26976,0.17729 0.51462,0.18399 0.45806,-0.007 0.79539,-0.11403 1.01198,-0.32199 0.21657,-0.20795 0.3239,-0.47628 0.322,-0.80499 -0.0225,-0.50742 -0.33399,-0.93004 -0.93437,-1.26786 -0.60039,-0.3378 -1.35459,-0.51317 -2.26259,-0.52612 z m -10.83732,-0.092 c -1.78488,0.0398 -3.28082,0.70773 -4.48782,2.00385 -1.207,1.29614 -1.8347,2.98182 -1.8831,5.05706 0.0518,1.27936 0.41975,2.21085 1.10399,2.79447 0.68424,0.58361 1.37423,0.87111 2.06997,0.86248 0.97988,0.0182 1.83183,-0.12745 2.55584,-0.43699 0.72401,-0.30954 1.51271,-0.8922 2.3661,-1.74798 0.31528,-0.29516 0.67944,-0.82032 1.09248,-1.57548 0.41303,-0.75515 0.63919,-1.6253 0.6785,-2.61046 0.009,-0.57499 -0.0833,-1.19598 -0.27771,-1.86298 -0.19437,-0.66698 -0.54589,-1.24197 -1.05457,-1.72498 -0.5087,-0.48298 -1.22993,-0.73598 -2.16368,-0.75899 z m -0.43699,1.79398 c 0.64733,0.0177 1.10637,0.27553 1.3771,0.77337 0.27072,0.49785 0.40201,1.12938 0.39387,1.8946 -0.003,0.6162 -0.12363,1.20653 -0.36224,1.77097 -0.23863,0.56446 -0.57788,1.06278 -1.01774,1.49498 -0.40921,0.40202 -0.82704,0.70198 -1.25348,0.89987 -0.42646,0.19789 -0.89029,0.2966 -1.39149,0.29612 -0.42549,-0.009 -0.78199,-0.20987 -1.06948,-0.60374 -0.2875,-0.39387 -0.437,-0.92862 -0.4485,-1.60423 0.0407,-1.34213 0.43652,-2.48732 1.18736,-3.43559 0.75084,-0.94825 1.61237,-1.4437 2.5846,-1.48635 z m -13.25084,-4.43894 c 0.0498,-0.0939 0.0997,-0.19932 0.1495,-0.31625 0.0498,-0.1169 0.0767,-0.23382 0.0805,-0.35074 -0.0144,-0.46334 -0.14662,-0.78438 -0.39674,-0.96312 -0.25013,-0.17871 -0.53187,-0.264 -0.84524,-0.25587 -0.34931,-0.006 -0.66268,0.0867 -0.94011,0.27887 -0.27744,0.19216 -0.42406,0.52086 -0.43987,0.98611 0.003,0.11789 0.0254,0.23289 0.0661,0.345 0.0407,0.11214 0.08,0.20414 0.11788,0.276 l 0,11.43085 c -0.0939,0.0695 -0.17059,0.17202 -0.23,0.30762 -0.0594,0.1356 -0.0901,0.30139 -0.092,0.49737 0.006,0.35602 0.1265,0.62147 0.36225,0.79636 0.23574,0.1749 0.55199,0.2621 0.94873,0.26163 0.16771,-0.003 0.34404,-0.0201 0.529,-0.0517 0.18495,-0.0316 0.33828,-0.0604 0.45999,-0.0863 l 4.82994,-0.62099 c 0.10684,0.035 0.22088,0.0628 0.34212,0.0834 0.12122,0.0206 0.22951,0.0311 0.32487,0.0316 0.24053,9.6e-4 0.45519,-0.10445 0.64399,-0.31624 0.18878,-0.21179 0.28845,-0.5357 0.299,-0.97174 -0.0173,-0.37518 -0.13801,-0.64255 -0.36225,-0.80211 -0.22425,-0.15956 -0.4485,-0.23719 -0.67274,-0.23288 -0.11261,0.005 -0.24965,0.0412 -0.41112,0.10925 -0.16148,0.068 -0.29277,0.13896 -0.39387,0.21275 l -4.36994,0.55199 z m -13.53189,11.68385 c -0.0359,0.07 -0.0676,0.14279 -0.0949,0.21849 -0.0273,0.0757 -0.0417,0.14854 -0.0431,0.2185 -0.003,0.32104 0.0953,0.5587 0.29612,0.71299 0.20077,0.15429 0.52372,0.23096 0.96886,0.23 0.36273,9.6e-4 0.65501,-0.07 0.87687,-0.21275 0.22184,-0.14279 0.33588,-0.3632 0.34212,-0.66124 -0.001,-0.10446 -0.0216,-0.21179 -0.0604,-0.322 -0.0388,-0.1102 -0.0877,-0.21753 -0.14662,-0.32199 l 0,-6.37092 2.78297,-0.45999 c 0.0503,0.0249 0.12217,0.0498 0.21562,0.0747 0.0934,0.0249 0.18255,0.0384 0.26737,0.0403 0.24197,-0.007 0.42501,-0.1193 0.54912,-0.33637 0.12409,-0.21705 0.18638,-0.49592 0.18687,-0.83661 -0.002,-0.26065 -0.0839,-0.48107 -0.24437,-0.66124 -0.16053,-0.18016 -0.38573,-0.27407 -0.67562,-0.28175 -0.11261,0.006 -0.2094,0.0398 -0.29037,0.10063 -0.081,0.0609 -0.16053,0.11165 -0.23862,0.15237 l -2.55297,0.41399 c -0.001,-1.52515 0.0819,-2.58026 0.25012,-3.16533 0.16818,-0.58504 0.42981,-0.86391 0.78487,-0.83662 0.26928,0.004 0.50694,0.0537 0.71299,0.1495 0.20603,0.0959 0.3517,0.21468 0.43699,0.3565 -0.007,0.18161 0.07,0.3474 0.23,0.49737 0.16003,0.14999 0.3747,0.22953 0.64399,0.23862 0.32199,-0.0172 0.56349,-0.14374 0.72449,-0.3795 0.16099,-0.23573 0.24149,-0.47723 0.2415,-0.72449 -0.0417,-0.4226 -0.36657,-0.84235 -0.97461,-1.25923 -0.60806,-0.41686 -1.24918,-0.6411 -1.92335,-0.67274 -1.2832,1e-5 -2.15527,0.51176 -2.61622,1.53523 -0.46095,1.0235 -0.67753,2.55873 -0.64974,4.60569 l -1.21899,0.207 c -0.0589,-0.0249 -0.13081,-0.0498 -0.21562,-0.0747 -0.0848,-0.0249 -0.17393,-0.0383 -0.26737,-0.0402 -0.18879,0.0129 -0.34595,0.11932 -0.47149,0.31912 -0.12554,0.19982 -0.19071,0.41544 -0.1955,0.64687 0.0125,0.43843 0.10254,0.73456 0.27025,0.88836 0.1677,0.15382 0.33828,0.22569 0.51174,0.21562 0.0805,-9.5e-4 0.15525,-0.0163 0.22425,-0.046 0.069,-0.0297 0.13224,-0.068 0.18974,-0.115 l 1.17299,-0.18399 z m -8.35231,-14.23682 c -1.36835,0.0369 -2.62595,0.55087 -3.7728,1.54183 -1.14687,0.99099 -2.06884,2.23752 -2.76593,3.73958 -0.69709,1.50209 -1.05515,3.03824 -1.07417,4.60846 -0.008,0.87811 0.14112,1.77709 0.44807,2.69693 0.30694,0.91985 0.82088,1.69786 1.54183,2.33404 0.72093,0.63619 1.69828,0.96784 2.93203,0.99495 2.20749,-0.0513 4.04842,-0.88596 5.52281,-2.50409 1.47436,-1.61812 2.24006,-3.71205 2.29709,-6.28179 -0.0484,-2.57117 -0.57261,-4.40922 -1.5726,-5.51418 -1.00002,-1.10493 -2.18546,-1.64351 -3.55633,-1.61573 z m -0.253,1.83998 c 0.96358,-9.5e-4 1.71587,0.44371 2.25685,1.33398 0.54096,0.89029 0.816,2.23194 0.82511,4.02495 -0.0561,2.02733 -0.59369,3.67085 -1.61285,4.93056 -1.01919,1.25971 -2.18354,1.9085 -3.49308,1.94635 -1.09249,-0.0537 -1.87448,-0.53283 -2.34597,-1.43748 -0.4715,-0.90465 -0.7015,-1.91281 -0.68999,-3.02446 0.0182,-1.22551 0.27826,-2.42888 0.78028,-3.61011 0.50202,-1.18121 1.13692,-2.16309 1.90472,-2.94566 0.76779,-0.78255 1.55943,-1.18859 2.37493,-1.21813 z m -19.50969,7.5669 c 1.07763,-0.89411 1.86632,-1.4806 2.36609,-1.75948 0.49976,-0.27886 0.79972,-0.40536 0.89987,-0.37949 0.0925,0.008 0.20076,0.0609 0.32487,0.15812 0.12409,0.0973 0.19213,0.19023 0.20412,0.27887 l 0,6.43992 c -0.0589,0.0896 -0.10782,0.18064 -0.14662,0.27312 -0.0388,0.0925 -0.0589,0.20077 -0.0604,0.32487 0,0.27791 0.0977,0.49258 0.29325,0.64399 0.19549,0.15142 0.48873,0.22808 0.87974,0.23 0.42692,0.004 0.75179,-0.0676 0.97461,-0.21562 0.2228,-0.14806 0.33492,-0.39819 0.33637,-0.75037 -0.003,-0.15716 -0.0201,-0.27983 -0.0517,-0.36799 -0.0316,-0.0882 -0.0604,-0.16483 -0.0863,-0.23 l 0,-7.4979 c -0.0201,-0.38524 -0.20413,-0.73024 -0.55199,-1.03499 -0.34788,-0.30474 -0.73887,-0.46574 -1.17299,-0.483 -0.391,-0.0216 -0.90274,0.13658 -1.53523,0.47437 -0.63249,0.33782 -1.52373,0.98469 -2.67371,1.9406 l 0,-0.89698 c 0.0498,-0.08 0.0997,-0.17872 0.1495,-0.29613 0.0498,-0.11738 0.0767,-0.25634 0.0805,-0.41687 0.008,-0.24484 -0.0709,-0.43938 -0.23575,-0.58361 -0.16484,-0.14422 -0.46192,-0.21801 -0.89124,-0.22138 -0.37135,0.0106 -0.69814,0.11022 -0.98036,0.299 -0.28223,0.1888 -0.43077,0.40346 -0.44562,0.64399 4.8e-4,0.14663 0.0168,0.27313 0.0489,0.3795 0.0321,0.10638 0.0771,0.20988 0.13513,0.31049 l 0,1.83998 c -0.115,0.28414 -0.20125,0.53234 -0.25875,0.7446 -0.0575,0.21227 -0.0863,0.40873 -0.0863,0.58937 0.003,0.18544 0.0374,0.34356 0.1035,0.47437 0.0661,0.13081 0.14663,0.22569 0.2415,0.28462 l 0,3.58797 c -0.10207,0.0901 -0.17394,0.18591 -0.21563,0.28749 -0.0417,0.10159 -0.0618,0.22042 -0.0604,0.3565 0.012,0.27408 0.13177,0.47341 0.35937,0.59799 0.2276,0.12458 0.49114,0.18591 0.79062,0.184 0.33109,0.003 0.64638,-0.0604 0.94586,-0.18975 0.29947,-0.12937 0.45951,-0.34212 0.48012,-0.63824 4.7e-4,-0.12362 -0.012,-0.22712 -0.0374,-0.3105 -0.0254,-0.0834 -0.0666,-0.16387 -0.12362,-0.24149 z m -7.87036,-4.20895 c -1.78488,0.0398 -3.28081,0.70773 -4.48782,2.00385 -1.207,1.29614 -1.8347,2.98182 -1.8831,5.05706 0.0517,1.27936 0.41975,2.21085 1.10399,2.79447 0.68424,0.58361 1.37423,0.87111 2.06997,0.86248 0.97988,0.0182 1.83183,-0.12745 2.55585,-0.43699 0.724,-0.30954 1.5127,-0.8922 2.36609,-1.74798 0.31528,-0.29516 0.67944,-0.82032 1.09249,-1.57548 0.41302,-0.75515 0.63919,-1.6253 0.67849,-2.61046 0.009,-0.57499 -0.0833,-1.19598 -0.2777,-1.86298 -0.19438,-0.66698 -0.5459,-1.24197 -1.05458,-1.72498 -0.5087,-0.48298 -1.22993,-0.73598 -2.16368,-0.75899 z m -0.43699,1.79398 c 0.64734,0.0177 1.10637,0.27553 1.3771,0.77337 0.27072,0.49785 0.40201,1.12938 0.39388,1.8946 -0.003,0.6162 -0.12364,1.20653 -0.36225,1.77097 -0.23863,0.56446 -0.57788,1.06278 -1.01774,1.49498 -0.40921,0.40202 -0.82703,0.70198 -1.25348,0.89987 -0.42646,0.19789 -0.89029,0.2966 -1.39148,0.29612 -0.4255,-0.009 -0.782,-0.20987 -1.06949,-0.60374 -0.2875,-0.39387 -0.437,-0.92862 -0.44849,-1.60423 0.0407,-1.34213 0.43651,-2.48732 1.18736,-3.43559 0.75084,-0.94825 1.61237,-1.4437 2.58459,-1.48635 z m -8.78236,-5.95692 c -0.43987,0.0139 -0.77912,0.21611 -1.01774,0.60661 -0.23862,0.39053 -0.35937,0.88598 -0.36224,1.48636 -0.003,0.32776 0.0776,0.59225 0.2415,0.79349 0.16387,0.20126 0.42836,0.30476 0.79349,0.3105 0.36943,-0.004 0.68855,-0.19118 0.95736,-0.56062 0.2688,-0.36942 0.40968,-0.89554 0.42262,-1.57836 -0.001,-0.33587 -0.0906,-0.59558 -0.26737,-0.77911 -0.17682,-0.18351 -0.43269,-0.27646 -0.76762,-0.27887 z m 0.98899,5.47393 c -0.004,-0.25635 -0.12267,-0.49688 -0.3565,-0.72162 -0.23383,-0.22472 -0.49066,-0.34451 -0.77049,-0.35937 -0.67418,0.0153 -1.09105,0.15717 -1.25061,0.42549 -0.15956,0.26834 -0.22568,0.57117 -0.19837,0.90849 0,0.10686 0.0172,0.21515 0.0517,0.32487 0.0345,0.10974 0.0863,0.20078 0.15525,0.27312 l 0,6.39392 c -0.0517,0.057 -0.10925,0.14998 -0.1725,0.27887 -0.0633,0.1289 -0.0978,0.29661 -0.1035,0.50312 0.006,0.33685 0.1035,0.60039 0.29325,0.79062 0.18974,0.19022 0.43699,0.28701 0.74174,0.29037 0.38189,0.002 0.75084,-0.0882 1.10686,-0.27025 0.35601,-0.18208 0.54672,-0.46766 0.57212,-0.85674 -0.005,-0.14183 -0.0407,-0.27216 -0.10638,-0.39099 -0.0657,-0.11883 -0.12985,-0.20316 -0.19262,-0.253 l 0,-6.57791 c 0.0297,-0.0676 0.0738,-0.16243 0.13225,-0.28463 0.0585,-0.12217 0.091,-0.2803 0.0978,-0.47436 z m -11.67716,-1.03499 -1.56398,0.253 c -0.0364,-0.0359 -0.0901,-0.0676 -0.161,-0.0949 -0.0709,-0.0273 -0.14758,-0.0417 -0.23,-0.0431 -0.2597,0.005 -0.47628,0.0982 -0.64974,0.27887 -0.17346,0.18065 -0.26354,0.41736 -0.27025,0.71011 0.004,0.34549 0.0882,0.60903 0.253,0.79062 0.16483,0.18161 0.38716,0.2784 0.66699,0.29037 0.10254,-0.0115 0.19071,-0.0345 0.2645,-0.069 0.0738,-0.0345 0.13895,-0.0805 0.1955,-0.138 l 1.49498,-0.22999 0,6.64691 c 0.004,0.5635 0.16243,1.02349 0.47437,1.37998 0.31193,0.3565 0.7518,0.5405 1.3196,0.552 0.72548,-0.0334 1.54893,-0.31675 2.47034,-0.85014 0.9214,-0.5334 1.72781,-1.11662 2.41923,-1.74968 0.6914,-0.63306 1.05485,-1.11577 1.09036,-1.44813 0.009,-0.32774 -0.0719,-0.59224 -0.2415,-0.79349 -0.16963,-0.20124 -0.48013,-0.30474 -0.93149,-0.3105 -0.27936,0.006 -0.4969,0.092 -0.65261,0.25875 -0.15574,0.16675 -0.22953,0.3795 -0.22138,0.63824 -0.51702,0.60423 -1.11022,1.11501 -1.7796,1.53236 -0.66939,0.41735 -1.14184,0.63489 -1.41736,0.65261 -0.13704,-0.004 -0.23671,-0.0652 -0.29899,-0.18399 -0.0623,-0.11883 -0.093,-0.27217 -0.092,-0.46 l 0,-6.20992 3.01296,-0.48299 c 0.0355,0.034 0.0853,0.058 0.1495,0.0719 0.0642,0.0139 0.13703,0.0206 0.2185,0.0201 0.24484,1e-5 0.43938,-0.092 0.58361,-0.276 0.14422,-0.18399 0.21801,-0.45998 0.22138,-0.82799 -9.7e-4,-0.23957 -0.0738,-0.4504 -0.2185,-0.63249 -0.14472,-0.18207 -0.35555,-0.2779 -0.63249,-0.2875 -0.18018,0.004 -0.32584,0.0652 -0.437,0.184 l -2.89796,0.45999 0,-1.40298 c 0.069,-0.0929 0.12074,-0.18878 0.15525,-0.28749 0.0345,-0.0987 0.0517,-0.19453 0.0517,-0.2875 -0.0129,-0.29036 -0.12507,-0.48011 -0.33637,-0.56924 -0.21132,-0.0891 -0.44419,-0.12936 -0.69862,-0.12075 -0.43269,-0.005 -0.78056,0.0513 -1.04361,0.16962 -0.26306,0.11837 -0.39819,0.33015 -0.40537,0.63537 0,0.17778 0.0115,0.30523 0.0345,0.38237 0.023,0.0772 0.0575,0.14136 0.1035,0.19262 z m -6.49253,3.40396 c -2.41881,0.33158 -4.24537,1.0139 -5.47968,2.04697 -1.23432,1.03307 -1.8534,2.08339 -1.85723,3.15096 0.0149,0.58985 0.22089,1.04313 0.61812,1.35986 0.39722,0.31672 0.89651,0.47676 1.49785,0.48011 0.94682,0.004 1.83614,-0.20508 2.66797,-0.62674 0.83182,-0.42166 1.65214,-1.07907 2.46097,-1.97222 l 0.046,0 0,1.03498 c -0.0479,0.0906 -0.0901,0.17969 -0.1265,0.26738 -0.0364,0.0877 -0.0556,0.18256 -0.0575,0.28462 -0.007,0.21179 0.0589,0.3862 0.19837,0.52324 0.13943,0.13704 0.3953,0.20796 0.76762,0.21275 0.37517,0.009 0.71729,-0.0431 1.02636,-0.15525 0.30905,-0.11212 0.47292,-0.33637 0.49162,-0.67274 -4.9e-4,-0.11787 -0.0168,-0.22712 -0.0489,-0.32775 -0.0321,-0.10062 -0.0771,-0.17537 -0.13512,-0.22424 l 0,-7.03791 c -0.0139,-0.6598 -0.21611,-1.16867 -0.60662,-1.52661 -0.39052,-0.35792 -0.88597,-0.53904 -1.48635,-0.54337 -1.03404,0.005 -1.95594,0.12124 -2.76572,0.34787 -0.80978,0.22666 -1.51319,0.53236 -2.11022,0.91712 -0.25444,-0.0283 -0.48731,0.0628 -0.69862,0.27312 -0.21131,0.21036 -0.32343,0.43365 -0.33637,0.66986 0.006,0.2463 0.0977,0.48396 0.276,0.713 0.17825,0.22904 0.40824,0.35171 0.68999,0.36799 0.33493,-0.0153 0.58505,-0.0997 0.75037,-0.253 0.1653,-0.15332 0.23718,-0.28365 0.21562,-0.39099 0.42549,-0.2827 0.90273,-0.51653 1.43173,-0.70149 0.52899,-0.18495 1.10973,-0.28078 1.74223,-0.2875 0.29611,1e-5 0.50886,0.0748 0.63824,0.22425 0.12937,0.14951 0.19261,0.37375 0.18975,0.67274 z m -0.046,2.13897 c -0.023,0.37084 -0.27856,0.79193 -0.76666,1.26328 -0.48811,0.47135 -1.07077,0.88393 -1.74798,1.23772 -0.67721,0.3538 -1.31098,0.53979 -1.9013,0.55796 -0.22282,0.002 -0.40394,-0.0369 -0.54337,-0.11788 -0.13944,-0.081 -0.21132,-0.21801 -0.21563,-0.41111 0.0244,-0.56493 0.50456,-1.1888 1.44036,-1.87161 0.9358,-0.6828 2.18066,-1.13991 3.73458,-1.37135 z m -12.05092,-5.95693 c -0.94498,0.007 -1.88655,0.18756 -2.8247,0.54263 -0.93817,0.35508 -1.72299,0.84432 -2.35449,1.46772 -0.6315,0.62341 -0.95974,1.34095 -0.98473,2.1526 0.007,0.61237 0.18879,1.11837 0.54625,1.51798 0.35745,0.39963 0.85002,0.60662 1.47773,0.62099 0.52899,-0.005 1.00623,-0.058 1.43173,-0.15812 0.42549,-0.10014 0.86823,-0.2161 1.32823,-0.34787 0.44034,-0.1217 0.82463,-0.23478 1.15286,-0.33925 0.32822,-0.10445 0.64926,-0.16003 0.96311,-0.16674 0.31097,0.002 0.54576,0.0843 0.70437,0.24724 0.15859,0.16292 0.23813,0.39484 0.23862,0.69574 -0.0243,0.59161 -0.28239,1.09249 -0.77432,1.50265 -0.49195,0.41017 -1.07205,0.72194 -1.74031,0.93532 -0.66828,0.21339 -1.27905,0.32072 -1.83231,0.322 -0.31529,-0.007 -0.59321,-0.0623 -0.83374,-0.16675 -0.24054,-0.10445 -0.41496,-0.21754 -0.52325,-0.33924 0.023,-0.045 0.0402,-0.093 0.0517,-0.14375 0.0115,-0.0508 0.0172,-0.11021 0.0172,-0.17825 0.006,-0.11548 -0.0517,-0.24102 -0.17249,-0.37662 -0.12076,-0.1356 -0.33925,-0.20939 -0.6555,-0.22137 -0.39003,0.0105 -0.67945,0.13321 -0.86823,0.36799 -0.1888,0.23479 -0.28271,0.51846 -0.28175,0.85099 0.0316,0.55343 0.35937,1.01055 0.98324,1.37136 0.62386,0.36081 1.3541,0.54768 2.19072,0.56062 0.63873,0.008 1.46956,-0.14084 2.49248,-0.44637 1.02292,-0.30553 1.94745,-0.81549 2.7736,-1.52991 0.82613,-0.7144 1.26341,-1.68096 1.31183,-2.89966 -0.0182,-0.7609 -0.26355,-1.33781 -0.73599,-1.73073 -0.47246,-0.3929 -1.06278,-0.59032 -1.77097,-0.59224 -0.42071,0.007 -0.83854,0.0623 -1.25349,0.16675 -0.41496,0.10446 -0.85579,0.21754 -1.32248,0.33924 -0.42598,0.11165 -0.81602,0.22186 -1.17011,0.33062 -0.35411,0.10878 -0.66939,0.16724 -0.94586,0.17538 -0.20796,-0.002 -0.36704,-0.0556 -0.47725,-0.161 -0.11021,-0.10541 -0.16579,-0.25108 -0.16675,-0.437 0.0254,-0.54575 0.4116,-1.04695 1.15861,-1.5036 0.74701,-0.45663 1.70246,-0.69909 2.86634,-0.72737 0.47772,0.002 0.79301,0.0268 0.94587,0.0747 0.15284,0.0479 0.24388,0.10734 0.27312,0.17825 0.0388,0.0709 0.0934,0.13034 0.16387,0.17825 0.0704,0.0479 0.1998,0.0728 0.38812,0.0747 0.27886,-0.003 0.49736,-0.0834 0.65549,-0.2415 0.15811,-0.15812 0.23861,-0.37661 0.2415,-0.65549 -0.0177,-0.43699 -0.27553,-0.76473 -0.77337,-0.98324 -0.49785,-0.21849 -1.12939,-0.32774 -1.8946,-0.32775 z m -9.26535,-4.02494 c -0.43987,0.0139 -0.77912,0.21611 -1.01774,0.60661 -0.23862,0.39053 -0.35937,0.88598 -0.36224,1.48636 -0.003,0.32776 0.0776,0.59225 0.2415,0.79349 0.16387,0.20126 0.42836,0.30476 0.79349,0.3105 0.36943,-0.004 0.68855,-0.19118 0.95736,-0.56062 0.2688,-0.36942 0.40968,-0.89554 0.42262,-1.57836 -0.001,-0.33587 -0.0906,-0.59558 -0.26737,-0.77911 -0.17682,-0.18351 -0.43269,-0.27646 -0.76762,-0.27887 z m 0.98899,5.47393 c -0.004,-0.25635 -0.12267,-0.49688 -0.3565,-0.72162 -0.23383,-0.22472 -0.49066,-0.34451 -0.77049,-0.35937 -0.67418,0.0153 -1.09105,0.15717 -1.25061,0.42549 -0.15956,0.26834 -0.22568,0.57117 -0.19837,0.90849 0,0.10686 0.0172,0.21515 0.0517,0.32487 0.0345,0.10974 0.0863,0.20078 0.15525,0.27312 l 0,6.39392 c -0.0517,0.057 -0.10925,0.14998 -0.1725,0.27887 -0.0633,0.1289 -0.0978,0.29661 -0.1035,0.50312 0.006,0.33685 0.1035,0.60039 0.29325,0.79062 0.18975,0.19022 0.43699,0.28701 0.74174,0.29037 0.38189,0.002 0.75084,-0.0882 1.10686,-0.27025 0.35601,-0.18208 0.54672,-0.46766 0.57212,-0.85674 -0.005,-0.14183 -0.0407,-0.27216 -0.10638,-0.39099 -0.0656,-0.11883 -0.12985,-0.20316 -0.19262,-0.253 l 0,-6.57791 c 0.0297,-0.0676 0.0738,-0.16243 0.13225,-0.28463 0.0584,-0.12217 0.091,-0.2803 0.0978,-0.47436 z m -11.07701,2.89796 c 1.07762,-0.89411 1.86632,-1.4806 2.36609,-1.75948 0.49976,-0.27886 0.79971,-0.40536 0.89986,-0.37949 0.0925,0.008 0.20076,0.0609 0.32487,0.15812 0.1241,0.0973 0.19214,0.19023 0.20413,0.27887 l 0,6.43992 c -0.059,0.0896 -0.10782,0.18064 -0.14663,0.27312 -0.0388,0.0925 -0.0589,0.20077 -0.0604,0.32487 -1e-5,0.27791 0.0977,0.49258 0.29325,0.64399 0.19549,0.15142 0.48873,0.22808 0.87973,0.23 0.42693,0.004 0.7518,-0.0676 0.97462,-0.21562 0.2228,-0.14806 0.33492,-0.39819 0.33637,-0.75037 -0.003,-0.15716 -0.0201,-0.27983 -0.0517,-0.36799 -0.0316,-0.0882 -0.0604,-0.16483 -0.0862,-0.23 l 0,-7.4979 c -0.0201,-0.38524 -0.20413,-0.73024 -0.55199,-1.03499 -0.34788,-0.30474 -0.73888,-0.46574 -1.17299,-0.483 -0.391,-0.0216 -0.90274,0.13658 -1.53523,0.47437 -0.6325,0.33782 -1.52373,0.98469 -2.67371,1.9406 l 0,-0.89698 c 0.0498,-0.08 0.0997,-0.17872 0.14949,-0.29613 0.0498,-0.11738 0.0767,-0.25634 0.0805,-0.41687 0.008,-0.24484 -0.0709,-0.43938 -0.23574,-0.58361 -0.16484,-0.14422 -0.46192,-0.21801 -0.89124,-0.22138 -0.37135,0.0106 -0.69814,0.11022 -0.98037,0.299 -0.28222,0.1888 -0.43076,0.40346 -0.44561,0.64399 4.7e-4,0.14663 0.0168,0.27313 0.0489,0.3795 0.0321,0.10638 0.0771,0.20988 0.13512,0.31049 l 0,1.83998 c -0.11499,0.28414 -0.20124,0.53234 -0.25874,0.7446 -0.0575,0.21227 -0.0862,0.40873 -0.0862,0.58937 0.003,0.18544 0.0374,0.34356 0.1035,0.47437 0.0661,0.13081 0.14662,0.22569 0.2415,0.28462 l -1e-5,3.58797 c -0.10206,0.0901 -0.17393,0.18591 -0.21562,0.28749 -0.0417,0.10159 -0.0618,0.22042 -0.0604,0.3565 0.012,0.27408 0.13177,0.47341 0.35937,0.59799 0.2276,0.12458 0.49114,0.18591 0.79061,0.184 0.3311,0.003 0.64639,-0.0604 0.94586,-0.18975 0.29948,-0.12937 0.45952,-0.34212 0.48012,-0.63824 4.8e-4,-0.12362 -0.012,-0.22712 -0.0374,-0.3105 -0.0254,-0.0834 -0.0666,-0.16387 -0.12362,-0.24149 z m -7.18252,-0.52899 c -2.41881,0.33158 -4.24537,1.0139 -5.47968,2.04697 -1.23432,1.03307 -1.8534,2.08339 -1.85723,3.15096 0.0148,0.58985 0.22089,1.04313 0.61812,1.35986 0.39722,0.31672 0.8965,0.47676 1.49785,0.48011 0.94682,0.004 1.83614,-0.20508 2.66797,-0.62674 0.83181,-0.42166 1.65214,-1.07907 2.46097,-1.97222 l 0.046,0 0,1.03498 c -0.0479,0.0906 -0.0901,0.17969 -0.1265,0.26738 -0.0364,0.0877 -0.0556,0.18256 -0.0575,0.28462 -0.007,0.21179 0.0589,0.3862 0.19837,0.52324 0.13943,0.13704 0.3953,0.20796 0.76762,0.21275 0.37517,0.009 0.71729,-0.0431 1.02636,-0.15525 0.30905,-0.11212 0.47292,-0.33637 0.49162,-0.67274 -4.9e-4,-0.11787 -0.0168,-0.22712 -0.0489,-0.32775 -0.0321,-0.10062 -0.0772,-0.17537 -0.13512,-0.22424 l 0,-7.03791 c -0.0139,-0.6598 -0.21611,-1.16867 -0.60662,-1.52661 -0.39052,-0.35792 -0.88598,-0.53904 -1.48635,-0.54337 -1.03404,0.005 -1.95594,0.12124 -2.76572,0.34787 -0.80978,0.22666 -1.51319,0.53236 -2.11022,0.91712 -0.25444,-0.0283 -0.48731,0.0628 -0.69862,0.27312 -0.21131,0.21036 -0.32343,0.43365 -0.33637,0.66986 0.006,0.2463 0.0977,0.48396 0.276,0.713 0.17824,0.22904 0.40824,0.35171 0.68999,0.36799 0.33493,-0.0153 0.58505,-0.0997 0.75036,-0.253 0.16531,-0.15332 0.23719,-0.28365 0.21563,-0.39099 0.42549,-0.2827 0.90273,-0.51653 1.43173,-0.70149 0.52899,-0.18495 1.10973,-0.28078 1.74223,-0.2875 0.29611,1e-5 0.50886,0.0748 0.63824,0.22425 0.12936,0.14951 0.19261,0.37375 0.18975,0.67274 z m -0.046,2.13897 c -0.023,0.37084 -0.27856,0.79193 -0.76666,1.26328 -0.48811,0.47135 -1.07077,0.88393 -1.74798,1.23772 -0.67722,0.3538 -1.31099,0.53979 -1.90131,0.55796 -0.22281,0.002 -0.40393,-0.0369 -0.54337,-0.11788 -0.13943,-0.081 -0.21131,-0.21801 -0.21562,-0.41111 0.0244,-0.56493 0.50456,-1.1888 1.44036,-1.87161 0.9358,-0.6828 2.18065,-1.13991 3.73458,-1.37135 z m -9.00166,-4.36995 c -9.6e-4,-0.41111 -0.1198,-0.7101 -0.35649,-0.89698 -0.23672,-0.18687 -0.58555,-0.27887 -1.04649,-0.276 -1.63185,0.029 -3.03199,0.43615 -4.20043,1.22154 -1.16844,0.7854 -2.066,1.77524 -2.69267,2.96952 -0.62667,1.19428 -0.94327,2.41923 -0.9498,3.67484 -0.005,0.7312 0.19502,1.33877 0.60087,1.82272 0.40585,0.48396 1.04888,0.73504 1.9291,0.75324 0.89123,-0.0134 1.76522,-0.34882 2.62197,-1.00623 0.85673,-0.65741 1.52372,-1.55631 2.00097,-2.69672 -9.7e-4,0.57596 -0.005,1.15478 -0.0115,1.73648 -0.007,0.5817 -0.0105,1.16053 -0.0115,1.73648 -0.0369,1.13177 -0.31961,1.92143 -0.84811,2.36897 -0.52852,0.44753 -1.08147,0.66219 -1.65886,0.64399 -0.32727,-4.8e-4 -0.63872,-0.0398 -0.93436,-0.11788 -0.29565,-0.0781 -0.54385,-0.19214 -0.74462,-0.34212 -0.0498,-0.20891 -0.15141,-0.37183 -0.30474,-0.48874 -0.15334,-0.11692 -0.33542,-0.17633 -0.54624,-0.17825 -0.30379,0.007 -0.54721,0.11979 -0.73025,0.33925 -0.18304,0.21945 -0.27695,0.50503 -0.28174,0.85674 0.0235,0.46143 0.35601,0.84954 0.99761,1.16436 0.64159,0.3148 1.45137,0.47867 2.42934,0.49162 1.13321,0.004 2.19024,-0.36609 3.17109,-1.10974 0.98083,-0.74366 1.50312,-1.88406 1.56685,-3.42121 z m -6.43991,7.40591 c -0.21994,-0.004 -0.38956,-0.0997 -0.50887,-0.2875 -0.11932,-0.18783 -0.17969,-0.44466 -0.18113,-0.77049 0.0364,-1.44898 0.52708,-2.75996 1.47199,-3.93295 0.9449,-1.17297 2.12555,-1.79397 3.54195,-1.86297 l 0,0.023 c -0.0359,0.529 -0.10782,1.02924 -0.21562,1.50073 -0.10782,0.4715 -0.24294,0.91424 -0.40537,1.32823 -0.49786,1.32392 -1.11214,2.32154 -1.84285,2.99284 -0.73073,0.6713 -1.35076,1.00767 -1.8601,1.00911 z m -10.62382,0.092 c -0.0829,0.0599 -0.15286,0.14135 -0.20988,0.24437 -0.057,0.10302 -0.0867,0.21323 -0.0891,0.33062 -9.6e-4,0.299 0.0872,0.52324 0.2645,0.67274 0.17728,0.1495 0.44945,0.22425 0.81649,0.22425 0.6114,0 1.03881,-0.0863 1.28223,-0.25875 0.24341,-0.1725 0.36033,-0.43124 0.35075,-0.77624 -0.003,-0.11883 -0.0316,-0.23766 -0.0862,-0.35649 -0.0546,-0.11883 -0.11788,-0.21467 -0.18975,-0.2875 l 0,-4.20895 c 0.60517,-0.69381 1.16579,-1.22664 1.68185,-1.59848 0.51605,-0.37182 0.87542,-0.55965 1.07811,-0.56349 0.092,0.004 0.161,0.0537 0.207,0.1495 0.046,0.0958 0.069,0.21467 0.069,0.3565 -0.0728,0.18783 -0.11117,0.38716 -0.115,0.59799 0.002,0.19694 0.0953,0.34931 0.27887,0.45712 0.18351,0.10781 0.44322,0.16244 0.77912,0.16387 0.39003,-0.004 0.67944,-0.0997 0.86824,-0.2875 0.18878,-0.18782 0.28269,-0.44465 0.28174,-0.77049 -0.0149,-1.04264 -0.1634,-1.7748 -0.44562,-2.19647 -0.28223,-0.42165 -0.60902,-0.62481 -0.98036,-0.60949 -0.55727,0.0134 -1.15047,0.21084 -1.7796,0.59224 -0.62914,0.38142 -1.26259,0.86633 -1.90035,1.45473 l -0.023,0 0,-0.80499 c 0.0762,-0.0925 0.11931,-0.18351 0.12937,-0.27312 0.0101,-0.0896 0.0129,-0.17488 0.009,-0.25587 -0.004,-0.23286 -0.10542,-0.41686 -0.30475,-0.55199 -0.19933,-0.13512 -0.47341,-0.20411 -0.82224,-0.207 -0.37758,0.007 -0.69191,0.0906 -0.94299,0.25012 -0.25108,0.15957 -0.38141,0.35219 -0.39099,0.57787 l 0.184,0.59799 z m -7.36333,-14.14482 c -1.36834,0.0369 -2.62594,0.55087 -3.7728,1.54183 -1.14686,0.99099 -2.06884,2.23752 -2.76593,3.73958 -0.69709,1.50209 -1.05514,3.03824 -1.07417,4.60846 -0.008,0.87811 0.14112,1.77709 0.44807,2.69693 0.30695,0.91985 0.82089,1.69786 1.54183,2.33404 0.72094,0.63619 1.69828,0.96784 2.93204,0.99495 2.20748,-0.0513 4.04842,-0.88596 5.5228,-2.50409 1.47437,-1.61812 2.24006,-3.71205 2.2971,-6.28179 -0.0484,-2.57117 -0.57261,-4.40922 -1.57261,-5.51418 -1.00002,-1.10493 -2.18546,-1.64351 -3.55633,-1.61573 z m -0.25299,1.83998 c 0.96358,-9.5e-4 1.71586,0.44371 2.25684,1.33398 0.54096,0.89029 0.816,2.23194 0.82512,4.02495 -0.0561,2.02733 -0.59369,3.67085 -1.61286,4.93056 -1.01918,1.25971 -2.18354,1.9085 -3.49308,1.94635 -1.09249,-0.0537 -1.87448,-0.53283 -2.34597,-1.43748 -0.47149,-0.90465 -0.70149,-1.91281 -0.68999,-3.02446 0.0182,-1.22551 0.27827,-2.42888 0.78029,-3.61011 0.50201,-1.18121 1.13692,-2.16309 1.90471,-2.94566 0.76779,-0.78255 1.55943,-1.18859 2.37494,-1.21813 z m -19.509696,7.5669 c 1.077627,-0.89411 1.866325,-1.4806 2.366095,-1.75948 0.499761,-0.27886 0.799711,-0.40536 0.899861,-0.37949 0.0925,0.008 0.20076,0.0609 0.32487,0.15812 0.1241,0.0973 0.19214,0.19023 0.20413,0.27887 l 0,6.43992 c -0.0589,0.0896 -0.10782,0.18064 -0.14663,0.27312 -0.0388,0.0925 -0.0589,0.20077 -0.0604,0.32487 -1e-5,0.27791 0.0977,0.49258 0.29324,0.64399 0.19549,0.15142 0.48874,0.22808 0.87974,0.23 0.42693,0.004 0.7518,-0.0676 0.97461,-0.21562 0.22281,-0.14806 0.33493,-0.39819 0.33638,-0.75037 -0.003,-0.15716 -0.0201,-0.27983 -0.0517,-0.36799 -0.0316,-0.0882 -0.0604,-0.16483 -0.0863,-0.23 l 0,-7.4979 c -0.0201,-0.38524 -0.20413,-0.73024 -0.552,-1.03499 -0.34787,-0.30474 -0.73887,-0.46574 -1.17298,-0.483 -0.391,-0.0216 -0.90275,0.13658 -1.53523,0.47437 -0.632498,0.33782 -1.523735,0.98469 -2.673716,1.9406 l 0,-0.89698 c 0.04983,-0.08 0.09966,-0.17872 0.149498,-0.29613 0.04983,-0.11738 0.07666,-0.25634 0.0805,-0.41687 0.0077,-0.24484 -0.07092,-0.43938 -0.235747,-0.58361 -0.164835,-0.14422 -0.461914,-0.21801 -0.891238,-0.22138 -0.371353,0.0106 -0.69814,0.11022 -0.980363,0.299 -0.282227,0.1888 -0.430766,0.40346 -0.445619,0.64399 4.78e-4,0.14663 0.01677,0.27313 0.04888,0.3795 0.0321,0.10638 0.07714,0.20988 0.135123,0.31049 l 0,1.83998 c -0.114998,0.28414 -0.201246,0.53234 -0.258744,0.7446 -0.0575,0.21227 -0.08625,0.40873 -0.08625,0.58937 0.0029,0.18544 0.03737,0.34356 0.103498,0.47437 0.06612,0.13081 0.146622,0.22569 0.241498,0.28462 l -4e-6,3.58797 c -0.102063,0.0901 -0.173937,0.18591 -0.215623,0.28749 -0.04169,0.10159 -0.06181,0.22042 -0.06037,0.3565 0.01198,0.27408 0.131769,0.47341 0.359371,0.59799 0.227599,0.12458 0.491137,0.18591 0.790614,0.184 0.331098,0.003 0.646385,-0.0604 0.945863,-0.18975 0.299472,-0.12937 0.459511,-0.34212 0.480119,-0.63824 4.76e-4,-0.12362 -0.01198,-0.22712 -0.03737,-0.3105 -0.0254,-0.0834 -0.06661,-0.16387 -0.123623,-0.24149 z m -7.67629,-4.11695 c -1.569256,0.0393 -2.950195,0.73121 -4.142822,2.07572 -1.192632,1.34454 -1.820331,3.10593 -1.8831,5.28419 0.02156,1.17059 0.352182,2.00337 0.991862,2.49834 0.639677,0.49497 1.459041,0.73551 2.458093,0.72162 1.258732,-0.0292 2.316433,-0.26975 3.173107,-0.72151 0.856659,-0.45176 1.503774,-0.9393 1.941345,-1.46262 0.437553,-0.52331 0.657044,-0.90692 0.658474,-1.15083 0.01005,-0.24341 -0.05607,-0.46958 -0.198373,-0.67849 -0.14232,-0.20891 -0.421191,-0.32008 -0.836614,-0.3335 -0.384295,0.009 -0.679458,0.11165 -0.885489,0.30762 -0.206047,0.19598 -0.294212,0.43077 -0.264496,0.70437 -0.220901,0.33589 -0.630104,0.67035 -1.22761,1.00336 -0.597519,0.33302 -1.299967,0.51222 -2.107347,0.53762 -0.49881,0.005 -0.88693,-0.11979 -1.16436,-0.37375 -0.277437,-0.25395 -0.41831,-0.66603 -0.42262,-1.23623 -0.0038,-0.45999 0.04983,-0.87399 0.160998,-1.24198 l 1.057987,-0.184 c 1.754503,-0.31376 3.067756,-0.62922 3.939764,-0.9464 0.871992,-0.31716 1.447552,-0.63944 1.726681,-0.96684 0.279109,-0.32738 0.406602,-0.66329 0.382477,-1.00772 0.02251,-0.5103 -0.212278,-1.09392 -0.704366,-1.75086 -0.492107,-0.65692 -1.376637,-1.01629 -2.653591,-1.07811 z m -0.092,1.74798 c 0.501195,0.0144 0.861524,0.14088 1.080986,0.37949 0.219448,0.23863 0.32678,0.50313 0.321996,0.79349 0.06085,0.15382 -0.204609,0.33494 -0.796365,0.54337 -0.59177,0.20844 -1.87496,0.48731 -3.849575,0.83662 0.355054,-0.75036 0.817922,-1.35985 1.388607,-1.82848 0.570675,-0.46861 1.188792,-0.71011 1.854351,-0.72449 z m -14.537037,-0.069 c 0.01677,-0.0719 0.04648,-0.16386 0.08912,-0.276 0.04264,-0.11211 0.0666,-0.22711 0.07187,-0.34499 0.0043,-0.32295 -0.102065,-0.56828 -0.319121,-0.73599 -0.217063,-0.1677 -0.570683,-0.25203 -1.060861,-0.253 -0.279354,-0.005 -0.537142,0.0743 -0.773366,0.23862 -0.236227,0.16436 -0.361767,0.44515 -0.37662,0.84237 0.0024,0.13848 0.02635,0.26402 0.07188,0.37662 0.04552,0.11261 0.09823,0.2094 0.158122,0.29037 l 0,13.50082 c -0.05894,0.10302 -0.107813,0.22473 -0.146623,0.36512 -0.03881,0.14039 -0.05894,0.30235 -0.06037,0.48587 0.01102,0.33637 0.121226,0.56061 0.330621,0.67274 0.209391,0.11212 0.451846,0.16387 0.727365,0.15525 0.525158,0.001 0.906569,-0.0762 1.144236,-0.23287 0.237659,-0.15669 0.354575,-0.40106 0.350745,-0.73311 -0.0014,-0.13561 -0.02157,-0.2554 -0.06037,-0.35938 -0.03882,-0.10398 -0.08769,-0.20652 -0.146623,-0.30762 l 0,-5.35893 c 0.348825,0.322 0.778152,0.483 1.287983,0.483 0.842182,-0.004 1.726108,-0.28977 2.651781,-0.85696 0.925659,-0.56718 1.715882,-1.39119 2.370673,-2.47204 0.65477,-1.08084 0.996926,-2.39381 1.026468,-3.93891 -0.01295,-0.96358 -0.263069,-1.71586 -0.750365,-2.25685 -0.487316,-0.54096 -1.134182,-0.816 -1.9406,-0.82511 -0.973182,-0.002 -1.821296,0.22042 -2.544342,0.66699 -0.723058,0.44659 -1.415924,1.12891 -2.078598,2.04697 l -0.023,0 z m 0,3.97895 c 0.256347,-0.46191 0.531385,-0.88932 0.825114,-1.28223 0.293721,-0.39291 0.586009,-0.73982 0.876864,-1.04074 0.529466,-0.53953 0.971252,-0.90369 1.325357,-1.09249 0.354093,-0.18878 0.68663,-0.27694 0.997613,-0.26449 0.400091,0.0115 0.692379,0.161 0.876864,0.44849 0.184468,0.2875 0.275508,0.644 0.273121,1.06949 -0.05894,1.44515 -0.510314,2.66605 -1.354107,3.6627 -0.843808,0.99665 -1.726421,1.51606 -2.647841,1.55823 -0.242939,0.001 -0.464311,-0.0589 -0.664117,-0.18112 -0.199814,-0.12219 -0.369436,-0.31481 -0.508868,-0.57787 z M 65.422472,152.4982 c -1.368348,0.0369 -2.625948,0.55087 -3.772804,1.54183 -1.146865,0.99099 -2.06884,2.23752 -2.765928,3.73958 -0.69709,1.50209 -1.055147,3.03824 -1.07417,4.60846 -0.0082,0.87811 0.141121,1.77709 0.448068,2.69693 0.306945,0.91985 0.820888,1.69786 1.541832,2.33404 0.720937,0.63619 1.698282,0.96784 2.932036,0.99495 2.207485,-0.0513 4.048417,-0.88596 5.522804,-2.50409 1.474364,-1.61812 2.240062,-3.71205 2.297095,-6.28179 -0.04841,-2.57117 -0.572609,-4.40922 -1.572604,-5.51418 -1.000019,-1.10493 -2.185461,-1.64351 -3.556329,-1.61573 z m -0.252997,1.83998 c 0.963582,-9.5e-4 1.715864,0.44371 2.256846,1.33398 0.540961,0.89029 0.815999,2.23194 0.825114,4.02495 -0.05607,2.02733 -0.593691,3.67085 -1.612855,4.93056 -1.019183,1.25971 -2.183541,1.9085 -3.493079,1.94635 -1.092491,-0.0537 -1.87448,-0.53283 -2.34597,-1.43748 -0.471497,-0.90465 -0.701494,-1.91281 -0.689991,-3.02446 0.01817,-1.22551 0.278265,-2.42888 0.780286,-3.61011 0.502013,-1.18121 1.136918,-2.16309 1.904716,-2.94566 0.767786,-0.78255 1.55943,-1.18859 2.374933,-1.21813 z m -16.269968,3.44995 c -1.569255,0.0393 -2.950195,0.73121 -4.142822,2.07572 -1.192632,1.34454 -1.820331,3.10593 -1.8831,5.28419 0.02156,1.17059 0.352182,2.00337 0.991862,2.49834 0.639677,0.49497 1.459041,0.73551 2.458093,0.72162 1.258732,-0.0292 2.316433,-0.26975 3.173107,-0.72151 0.85666,-0.45176 1.503774,-0.9393 1.941345,-1.46262 0.437553,-0.52331 0.657044,-0.90692 0.658474,-1.15083 0.01005,-0.24341 -0.05607,-0.46958 -0.198372,-0.67849 -0.142321,-0.20891 -0.421192,-0.32008 -0.836615,-0.3335 -0.384295,0.009 -0.679457,0.11165 -0.885488,0.30762 -0.206048,0.19598 -0.294213,0.43077 -0.264497,0.70437 -0.220901,0.33589 -0.630103,0.67035 -1.227609,1.00336 -0.59752,0.33302 -1.299968,0.51222 -2.107348,0.53762 -0.49881,0.005 -0.88693,-0.11979 -1.16436,-0.37375 -0.277437,-0.25395 -0.41831,-0.66603 -0.422619,-1.23623 -0.0038,-0.45999 0.04983,-0.87399 0.160998,-1.24198 l 1.057986,-0.184 c 1.754503,-0.31376 3.067756,-0.62922 3.939764,-0.9464 0.871992,-0.31716 1.447552,-0.63944 1.726681,-0.96684 0.27911,-0.32738 0.406602,-0.66329 0.382477,-1.00772 0.02251,-0.5103 -0.212278,-1.09392 -0.704366,-1.75086 -0.492107,-0.65692 -1.376636,-1.01629 -2.653591,-1.07811 z m -0.092,1.74798 c 0.501196,0.0144 0.861524,0.14088 1.080987,0.37949 0.219447,0.23863 0.326779,0.50313 0.321995,0.79349 0.06085,0.15382 -0.204609,0.33494 -0.796365,0.54337 -0.59177,0.20844 -1.87496,0.48731 -3.849575,0.83662 0.355054,-0.75036 0.817923,-1.35985 1.388607,-1.82848 0.570675,-0.46861 1.188792,-0.71011 1.854351,-0.72449 z m -10.178946,7.03791 c -0.09009,0.0963 -0.151422,0.21418 -0.183998,0.35362 -0.03259,0.13944 -0.04792,0.27456 -0.046,0.40537 0.0053,0.24389 0.11547,0.4346 0.33062,0.57212 0.215136,0.13752 0.50359,0.20747 0.865364,0.20987 0.338279,-0.009 0.644941,-0.11165 0.919989,-0.30762 0.275028,-0.19598 0.420693,-0.43077 0.436994,-0.70437 -0.0062,-0.093 -0.03403,-0.18304 -0.08337,-0.27024 -0.04936,-0.0872 -0.0829,-0.16579 -0.100624,-0.23575 l 0,-6.34792 c 0.0091,-0.76904 -0.106862,-1.34116 -0.347871,-1.71635 -0.241026,-0.37518 -0.661729,-0.56205 -1.262108,-0.56062 -0.62052,0.002 -1.305719,0.17634 -2.055599,0.52324 -0.749891,0.34692 -1.498339,0.85483 -2.245346,1.52373 l -0.046,0 0,-5.42793 c 0.04887,-0.10492 0.09487,-0.21704 0.137998,-0.33637 0.04312,-0.1193 0.06612,-0.23717 0.069,-0.35362 -0.023,-0.29467 -0.161001,-0.53904 -0.413994,-0.73311 -0.253,-0.19405 -0.482997,-0.29467 -0.689991,-0.30188 -0.422622,0.001 -0.767617,0.10208 -1.034987,0.30188 -0.267373,0.19982 -0.405371,0.49019 -0.413995,0.87111 0.0072,0.10543 0.03881,0.21659 0.09487,0.3335 0.05606,0.11692 0.09343,0.22809 0.112124,0.33349 l 0,11.91385 c -0.111167,0.138 -0.164833,0.39099 -0.160998,0.75899 -0.0038,0.24197 0.06708,0.42501 0.212747,0.54912 0.145663,0.1241 0.389076,0.18639 0.730241,0.18687 0.3862,-0.003 0.735028,-0.0887 1.046486,-0.25587 0.31145,-0.16723 0.476282,-0.39627 0.494494,-0.68712 -0.0038,-0.27216 -0.06517,-0.48682 -0.183998,-0.64399 l 0,-4.23195 c 0.651175,-0.80067 1.280791,-1.34979 1.888851,-1.64735 0.608048,-0.29755 1.082417,-0.43842 1.423106,-0.42262 0.192136,-0.008 0.325343,0.0599 0.39962,0.20412 0.07426,0.14424 0.10972,0.41353 0.106374,0.80787 z m -12.009226,-11.20086 3.150959,-0.59799 c 0.09007,0.0479 0.191654,0.0901 0.304746,0.1265 0.113072,0.0364 0.249153,0.0556 0.408245,0.0575 0.312881,-0.0101 0.555336,-0.12218 0.727365,-0.33637 0.172007,-0.21417 0.259214,-0.47005 0.261622,-0.76762 -0.0048,-0.3469 -0.09872,-0.61331 -0.281746,-0.79924 -0.183051,-0.1859 -0.426464,-0.27981 -0.730241,-0.28174 -0.134654,-4.7e-4 -0.256361,0.012 -0.36512,0.0374 -0.108779,0.0254 -0.224736,0.0666 -0.34787,0.12362 l -3.472956,0.621 c -0.219941,-0.11259 -0.504562,-0.14038 -0.853864,-0.0834 -0.349313,0.057 -0.616685,0.18449 -0.802114,0.38237 l -3.058961,0.59799 c -0.07379,-0.0469 -0.156208,-0.0853 -0.247247,-0.11499 -0.09104,-0.0297 -0.230957,-0.045 -0.419744,-0.046 -0.260665,0.007 -0.481078,0.11932 -0.661242,0.33637 -0.180165,0.21707 -0.27408,0.49594 -0.281746,0.83661 0.0038,0.31386 0.09966,0.56015 0.287496,0.73887 0.18783,0.17874 0.44466,0.26978 0.77049,0.27312 0.138955,-0.002 0.269287,-0.0263 0.390995,-0.0719 0.121705,-0.0455 0.229037,-0.0982 0.321996,-0.15812 l 2.690965,-0.52899 0,10.62586 c -0.046,0.0939 -0.0805,0.21083 -0.103499,0.35075 -0.023,0.13991 -0.0345,0.29133 -0.0345,0.45424 -4e-6,0.33206 0.08624,0.57643 0.258747,0.73312 0.172493,0.15668 0.431239,0.23431 0.77624,0.23287 0.546237,-0.007 0.937232,-0.11356 1.172985,-0.31912 0.235739,-0.20556 0.350738,-0.46718 0.344995,-0.78487 -0.0043,-0.12745 -0.03019,-0.24053 -0.07762,-0.33924 -0.04744,-0.0987 -0.09057,-0.17729 -0.129373,-0.23575 z"
       style="font-size:23px;font-style:normal;font-variant:normal;font-weight:bold;font-stretch:normal;text-align:end;line-height:125%;letter-spacing:0px;word-spacing:0px;writing-mode:lr-tb;text-anchor:end;fill:black;fill-opacity:1;stroke:none;font-family:Tekton Pro;-inkscape-font-specification:Tekton Pro Bold"
       id="text-curves" />
  </g>
</svg>
